<?xml version="1.0" encoding="UTF-8"?>
<svg xmlns="http://www.w3.org/2000/svg" viewBox="0 0 229.27 184.77">
  <path fill="none" d="M127.14 51.41a25.75 25.75 0 1 0 22.37 28.74 25.78 25.78 0 0 0-22.36-28.74z"/>
  <path fill="#fff" d="M121.87 101.41a25.74 25.74 0 1 0-22.35-28.74 25.75 25.75 0 0 0 22.35 28.74zm-3.69-92.98a10 10 0 1 0-13.7 10.93c.68 5.79 1.57 13.27 2.09 17l9.41-1.31c-.5-3.55-1.38-10.94-2.06-16.69a10 10 0 0 0 4.25-9.89zM69.79 142.05c2.08 3.27 4.19 6.46 6.31 9.55 7.63-4.25 17.13-7.91 29.5-6.36 8 1 19.19 5.63 27.44 13.29 2.85-2.52 5.72-5.13 8.58-7.84a61.47 61.47 0 0 0-34.49-16.67c-14.93-1.87-27.44 2.43-37.32 8z"/>
  <path fill="#fff" d="M81.61 157.09c2.45 3.43 4.81 6.66 7 9.67 4.06-3.11 9.4-3.73 14.36-3.11s11.24 3.17 13.51 6.57c2.91-2.41 6-5 9.3-7.78-4.76-4.08-11.52-8.91-21.38-10.15s-17.1 1.95-22.81 4.8zm27.59 18.25a7.76 7.76 0 0 0-.37-1 7.9 7.9 0 0 0-13.17-2 7.24 7.24 0 0 0-.67.9 7.52 7.52 0 0 0-.52 1 7 7 0 0 0 .12 6.12 7.63 7.63 0 0 0 2.13 2.68 7.69 7.69 0 0 0 6.41 1.59 7.65 7.65 0 0 0 5.58-4.26 7.24 7.24 0 0 0 .68-2.2 7.34 7.34 0 0 0-.21-2.84zm119.93-98.08c-1.54-6.24-16.17-8.46-38.82-4.07a82.09 82.09 0 0 0-14.16 4.09 65.23 65.23 0 0 0-128.28 6.87c-.08.69-.12 1.41-.15 2.12a40.62 40.62 0 0 0 .21 6.56 80.49 80.49 0 0 0-15 2.11c-21.87 5.21-34 13.1-32.86 19.27s18.66 11.31 33.68 6.9c5.94-1.74 12.84-5.3 19.14-9.11.39 1 .79 2.06 1.21 3.09l.18.43c1.37 3.32 2.93 6.65 4.61 10 1.85 3.65 3.84 7.27 5.94 10.85a69 69 0 0 1 34.68-9.35 72.43 72.43 0 0 1 9 .57 69.42 69.42 0 0 1 39.9 18.88c3.08-3.12 6.08-6.32 8.89-9.58a135.11 135.11 0 0 0 9.24-11.87l.36-.52c.88-1.3 1.73-2.6 2.52-3.9s1.62-2.76 2.35-4.13c3-5.61 5.06-11.06 5.69-16.1.13-1 .2-2 .26-2.94 7.85 1 16.34 1.51 23 .57 15.86-2.24 30-14.41 28.46-20.65zm-70.19 4.07a35.3 35.3 0 0 1-35 30.88 34.4 34.4 0 0 1-4.4-.28 35.26 35.26 0 0 1 4.35-70.24 36.17 36.17 0 0 1 4.39.27A35.29 35.29 0 0 1 158.9 81.3z"/>
</svg>