<?xml version="1.0" encoding="UTF-8"?>
<svg xmlns="http://www.w3.org/2000/svg" viewBox="0 0 271.5 228.5">
    <path fill="none" d="M148.273 73.265c-1.066-.134-2.147-.202-3.213-.202-12.942 0-23.914 9.7-25.517 22.56-1.76 14.086 8.266 26.977 22.353 28.735 1.065.135 2.148.202 3.216.202 12.943 0 23.922-9.698 25.525-22.56.85-6.807-1.01-13.55-5.24-18.987-4.23-5.435-10.31-8.898-17.124-9.748z" />
    <path fill="#CC2929" d="M142.992 123.26c14.116 1.764 26.98-8.25 28.742-22.356 1.762-14.108-8.248-26.975-22.362-28.737-14.117-1.765-26.97 8.25-28.732 22.357-1.76 14.107 8.233 26.975 22.352 28.737z" />
    <path d="M139.307 30.285c-.89-5.482-6.06-9.193-11.542-8.302-5.475.895-9.19 6.06-8.293 11.537.58 3.588 2.997 6.416 6.137 7.694.68 5.79 1.57 13.275 2.09 16.958l9.41-1.312c-.5-3.547-1.38-10.937-2.06-16.686 3.11-2.135 4.9-5.917 4.25-9.89zm-48.384 133.61c2.08 3.27 4.195 6.465 6.308 9.552 7.63-4.25 17.13-7.91 29.5-6.364 8.02 1.002 19.19 5.626 27.44 13.29 2.85-2.518 5.72-5.133 8.58-7.836-8.12-7.642-19.69-14.824-34.49-16.672-14.93-1.865-27.44 2.427-37.32 8.03z" />
    <path d="M102.74 178.938c2.45 3.433 4.813 6.664 7.022 9.667 4.06-3.11 9.398-3.73 14.36-3.11 4.92.616 11.243 3.17 13.508 6.57 2.912-2.406 6.036-5.002 9.297-7.78-4.764-4.082-11.522-8.915-21.378-10.145-9.74-1.217-17.1 1.95-22.81 4.798zm27.592 18.252c-.095-.347-.23-.676-.37-1.003-.008-.003-.012-.005-.016-.01l.008-.008c-1.055-2.43-3.346-4.29-6.225-4.64-2.74-.35-5.3.73-6.94 2.63-.25.28-.47.59-.67.9-.2.32-.37.67-.52 1.02-.27.623-.49 1.282-.58 1.992-.19 1.465.09 2.88.7 4.13.49 1.035 1.22 1.95 2.13 2.68 1.1.884 2.46 1.5 3.98 1.69.833.104 1.65.042 2.433-.104 2.47-.456 4.546-2.04 5.58-4.265.324-.685.576-1.408.676-2.197.123-.98.034-1.94-.21-2.84zm119.926-98.078c-1.543-6.235-16.173-8.463-38.815-4.068-5.26 1.022-9.99 2.47-14.157 4.094-6.072-25.8-27.586-46.385-55.386-49.857-2.732-.34-5.45-.5-8.14-.5-32.42 0-60.6 24.21-64.72 57.19-.084.69-.117 1.41-.155 2.12-.117 2.09-.038 4.28.205 6.56-4.552.21-9.59.83-14.96 2.11-21.944 5.23-34.074 13.13-32.93 19.3 1.146 6.18 18.662 11.31 33.683 6.9 5.945-1.74 12.84-5.3 19.137-9.11.388 1.03.788 2.06 1.21 3.09.06.14.116.287.177.43 1.374 3.32 2.933 6.65 4.61 9.964 1.845 3.65 3.84 7.275 5.938 10.845 9.616-5.546 21.307-9.35 34.678-9.35 2.92 0 5.92.18 8.998.565 17.03 2.127 30.29 9.676 39.9 18.878 3.08-3.125 6.08-6.323 8.89-9.582 3.37-3.9 6.5-7.87 9.24-11.87l.36-.523c.88-1.3 1.73-2.6 2.52-3.902.84-1.387 1.62-2.76 2.35-4.13 3.01-5.614 5.06-11.055 5.69-16.103.13-.99.2-1.97.26-2.944 7.85 1.008 16.34 1.51 22.98.574 15.858-2.24 30-14.414 28.46-20.65zm-70.19 4.067c-2.223 17.81-17.446 30.88-34.955 30.88-1.454 0-2.92-.09-4.396-.28-19.285-2.41-33.013-20.06-30.606-39.35 2.23-17.81 17.45-30.89 34.96-30.89 1.45 0 2.92.09 4.39.27 19.29 2.404 33.03 20.06 30.62 39.343z" />
</svg>
