<svg xmlns="http://www.w3.org/2000/svg" viewBox="0 0 299 374"><g fill="none"><circle cx="24.408" cy="350.081" r="16.7" fill="#FFF" transform="rotate(-41.782 24.408 350.08)"/><path fill="#FFF" d="M88.4 298.6c-19.1-15.8-43.6-23.7-68.3-22-.5-8.3-.8-16.9-1-25.6 30.8-1 61 9.2 84.7 28.9 20.5 16.8 35.2 39.5 42 65.1l-24.5 5.9c-5-20.6-16.6-38.9-32.9-52.3z"/><path fill="#FFF" d="M53.6 331c-9.6-11.3-23-17.1-35.3-16.6.4-8 .9-16.7 1.8-25.9 20.2 1.6 39 11.2 52 26.7 9.9 11.6 16.2 25.9 17.9 41l-25 2.5c-.7-10.2-4.7-19.9-11.4-27.7zm209.8-125.9c-33.8-15.7-57.9-57.8-57-97.1.1-3.2.3-6.5.7-9.7 1.9-14.2 7.1-25.9 14.5-34.5-68.2-36-152.8-11.7-191.4 55.2-18.5 32.1-18.7 78.5-12.2 122.6 69.2-12.6 137.4 26.8 161 93.1 41.4-16.4 81.4-39.8 100-72 9.3-16 15.4-33.8 18-52.1-10.4 1.6-21.9 0-33.6-5.5z"/><path fill="#7F7F7F" d="M298.3 188.3c-9.5 3.7-20.8 3.3-32.4-2.1-24-11.2-46.2-50.3-42.2-80.2 1.8-13.7 7.7-24.3 16.1-30.9-4.3-3.1-8.7-6-13.3-8.7l-4.8-2.7c-7.4 8.6-12.6 20.3-14.5 34.5-.4 3.2-.7 6.5-.7 9.7-.9 39.4 23.2 81.4 57 97.1 11.7 5.5 23.2 7.1 33.6 5.4.9-7.2 1.3-14.7 1.2-22.1z"/><path fill="#D0D0D0" d="M223.7 106c-3.9 29.9 18.2 69 42.2 80.2 11.6 5.4 22.9 5.8 32.4 2.1-.8-44.8-22.5-86.7-58.6-113.2-8.3 6.5-14.2 17.1-16 30.9zm-90.5-37.7c-3.2 0-6.2-1.6-8-4.3-.3-.4-17.4-25.6-38.9-23-5.2.6-10-3.1-10.6-8.4-.6-5.2 3.1-10 8.4-10.6 33.4-4 56.2 30 57.2 31.5 2.9 4.4 1.7 10.3-2.7 13.3-1.7.9-3.6 1.5-5.4 1.5z"/><circle cx="85.095" cy="31.42" r="22.199" fill="#D0D0D0" transform="rotate(-32.508 85.095 31.42)"/><path fill="#D0D0D0" d="M188.3 230.2s9.2 31.9-3.1 73c-12.3 41.1-28.6 63.3-40.2 60.5-11.6-2.8-12-54-9.5-64.7 1.3-5.5 9.1-37.2 20.8-53.8 0 0 25.8-16.2 27.2-16.6 2.9-1.2 3.7-2.9 4.8 1.6z"/></g></svg>
