<svg xmlns="http://www.w3.org/2000/svg" viewBox="0 0 3840 3261"><g fill="none"><path fill="#7F7F7F" d="M2336.94 1380.67c1.82-.087 3.645-.044 5.46.13 1.68.15 3.35.408 5 .77 29.81 6.87 54.46 46.87 54.52 82.09 0 0-1.18 56.36-4.38 77 13.56-2.93 22.93-9.15 25.2-16.84 5.37-16.65 5.39-83.62 5.39-83.62-.05-34.42-18-72.33-43.32-93.19 2.497-10.552.956-21.656-4.32-31.13-6.65-11.81-18.22-18.85-31-18.85-7.54.023-14.866 2.52-20.85 7.11-11.79 8.89-17.45 23.95-15.72 38.54-4.75 3.8-8.963 8.224-12.53 13.15 20.26 2.36 36.55 24.84 36.55 24.84z"/><path fill="#E7E8E9" d="M2434.28 1545.79c-8.354-.034-16.677-1.013-24.81-2.92-3.32-.75-6.78-1.72-10.83-3-3.31-66.91-1.68-118.94.32-151.2 1.206.14 2.405.345 3.59.61 13.69 3.15 26.9 13.64 37.2 29.52 10 15.35 15.67 33.7 15.7 50.35 0 2.25-1.22 54.69-4.19 75-5.597 1.114-11.293 1.66-17 1.63l.02.01z"/><path fill="#7F7F7F" d="M2400 1389.94c.79.12 1.53.26 2.25.42 13.2 3 26.5 13.62 36.49 29 9.83 15.16 15.49 33.28 15.52 49.72v.07c-.12 5.57-1.26 53.79-4.06 74-5.275.99-10.633 1.476-16 1.45-8.27-.037-16.51-1.01-24.56-2.9-3.07-.69-6.27-1.58-10-2.76-3.21-65.62-1.67-116.85.28-149h.08zm-2.23-2.59c-2.18 34.51-3.69 86.64-.35 153.32 3.8 1.26 7.67 2.41 11.69 3.32 8.217 1.942 16.627 2.948 25.07 3 6.048.033 12.08-.578 18-1.82 3.16-20.39 4.32-76 4.32-76-.05-34.75-24.39-74.23-53.8-81-1.622-.357-3.266-.61-4.92-.76l-.01-.06zm-804.2-31.46c-3.567-4.926-7.78-9.35-12.53-13.15 1.73-14.59-3.93-29.64-15.72-38.54-5.984-4.59-13.31-7.087-20.85-7.11-12.73 0-24.3 7-31 18.85-5.276 9.474-6.817 20.578-4.32 31.13-25.31 20.87-43.26 58.77-43.32 93.19 0 0 0 67 5.39 83.62 2.27 7.69 11.64 13.92 25.2 16.84-3.2-20.66-4.38-77-4.38-77 .06-35.21 24.71-75.22 54.52-82.09 1.65-.362 3.32-.62 5-.77 1.815-.17 3.64-.21 5.46-.12 0 0 16.3-22.55 36.55-24.85z"/><path fill="#E7E8E9" d="M1459.69 1545.79c-5.707.03-11.403-.516-17-1.63-2.89-19.8-4.06-69.31-4.19-75v-.08c0-16.66 5.75-35 15.71-50.37 10.3-15.88 23.51-26.36 37.2-29.52 1.185-.265 2.384-.47 3.59-.61 2 32.26 3.63 84.29.32 151.2-4.05 1.32-7.51 2.29-10.83 3-8.127 1.936-16.446 2.945-24.8 3.01z"/><path fill="#7F7F7F" d="M1493.94 1386.94c2 32.18 3.49 83.41.28 149-3.7 1.19-6.9 2.08-10 2.77-8.048 1.887-16.284 2.856-24.55 2.89-5.367.026-10.725-.46-16-1.45-2.81-20.28-3.94-68.47-4.06-74v-.05c0-16.44 5.69-34.56 15.52-49.72 10-15.4 23.29-26 36.48-29 .73-.16 1.47-.3 2.26-.42l.07-.02zm2.08.43c-1.654.15-3.298.403-4.92.76-29.41 6.78-53.75 46.26-53.8 81 0 0 1.16 55.62 4.32 76 5.92 1.243 11.952 1.853 18 1.82 8.443-.052 16.853-1.058 25.07-3 4-.9 7.89-2.06 11.69-3.32 3.33-66.69 1.83-118.81-.35-153.32l-.01.06z"/></g></svg>