<svg xmlns="http://www.w3.org/2000/svg" viewBox="0 0 3840 3261"><g fill="none" fill-rule="evenodd"><path fill="#000" fill-rule="nonzero" d="M1942 397.89c354.76 0 642.35 349.68 642.35 666.5 0 0 0 459.47-46.17 576.8-37 101.9-289.81 180.74-596.17 180.74-306.36 0-559.17-78.84-596.18-180.74-46.17-117.32-46.17-576.8-46.17-576.8 0-316.82 287.59-666.5 642.35-666.5h-.01zm.01-13.46c-87.45 0-173.57 20.51-256 61-39.27 19.38-76.558 42.535-111.34 69.14-34.842 26.642-67.246 56.33-96.83 88.71-29.503 32.25-56.212 66.948-79.84 103.72-23.354 36.32-43.532 74.584-60.31 114.37-16.432 38.94-29.204 79.323-38.15 120.63-8.743 40.224-13.218 81.257-13.35 122.42 0 1.15.07 116.65 5.79 245 7.72 173.2 21.6 286.43 41.26 336.56 10.15 27.79 34 54 71 77.78 34.67 22.35 80 42.17 134.75 58.91 111.25 34 254.38 52.75 403 52.75s291.79-18.73 403-52.75c54.74-16.74 100.08-36.56 134.75-58.91 36.95-23.82 60.83-50 71-77.78 19.66-50.12 33.54-163.36 41.26-336.56 5.72-128.35 5.79-243.85 5.79-245-.126-41.162-4.594-82.196-13.33-122.42-8.958-41.294-21.74-81.665-38.18-120.59-16.767-39.8-36.935-78.077-60.28-114.41-23.623-36.786-50.33-71.497-79.83-103.76-29.584-32.38-61.988-62.068-96.83-88.71-34.782-26.602-72.07-49.754-111.34-69.13-82.39-40.45-168.51-61-256-61l.01.03z"/><path fill="#FFF" fill-rule="nonzero" d="M2118.33 527.14c80.23 39.39 153.51 95 217.82 165.26 61.61 67.32 112.52 146.55 147.22 229.11 35.16 83.65 53.74 171.05 53.74 252.75 0 1.72-.07 61.78-2.14 144.86 6.62-132 6.76-256.92 6.76-259.25 0-70.86-16.12-146.67-46.62-219.23-30.1-71.62-74.26-140.34-127.7-198.73-55.78-60.95-119.34-109.18-188.93-143.35-74.1-36.38-151.44-54.83-229.85-54.83-50.6.056-100.903 7.726-149.22 22.75 17.913-1.687 35.89-2.537 53.93-2.55 90.4-.01 179.56 21.26 264.99 63.21z"/><path stroke="#000" stroke-width="48.07" d="M1946.43 388.43s-3.25-131.37 85.69-178.49"/><path fill="#E7E8E9" fill-rule="nonzero" d="M2032.06 293.92c-45.608-.204-82.72-36.764-83.608-82.364-.888-45.6 34.773-83.576 80.338-85.556 1.12 0 2.26-.07 3.39-.07 45.53.312 82.523 36.84 83.41 82.362.886 45.523-34.657 83.464-80.14 85.548-1.13.06-2.27.08-3.39.08z"/><path fill="#000" fill-rule="nonzero" d="M2032.17 130.28c43.39-.005 78.8 34.72 79.644 78.1.844 43.38-33.188 79.456-76.544 81.14-1.073.04-2.143.06-3.21.06-43.39.005-78.8-34.72-79.644-78.1-.844-43.38 33.188-79.456 76.544-81.14 1.073-.04 2.143-.06 3.21-.06zm0-8.67c-1.18 0-2.38 0-3.56.07-48.15 1.772-85.996 41.81-85.054 89.985.94 48.175 40.32 86.705 88.504 86.595 1.18 0 2.38 0 3.56-.07 48.15-1.772 85.996-41.81 85.054-89.985-.94-48.175-40.32-86.705-88.504-86.595z"/></g></svg>