<svg xmlns="http://www.w3.org/2000/svg" viewBox="0 0 3840 3261"><g fill="none"><path fill="#E7E8E9" d="M1475 1754.35c-24.38-8.48-46.39-21.82-60.8-36.92-3.73-34.4-6.55-97.41-6.66-99.83.59-21.59 7.54-41.84 19.57-57 12.03-15.16 28.18-23.73 45.2-23.73 1.06 0 2.14 0 3.22.1-2.84 46.5-5.18 121.31-.53 217.38z"/><path fill="#000" d="M1472.35 1538.77h1.18c-2.8 46.22-5 119.32-.55 212.79-22.77-8.31-43.22-20.87-56.9-35-3.66-34.21-6.43-95.66-6.58-99 .59-21.15 7.39-41 19.16-55.81 11.77-14.81 27.27-23 43.69-23v.02zm0-3.87c-36.83 0-65.49 37.65-66.7 82.69 0 0 2.87 65.45 6.74 100.67 14.09 15 37.28 29.73 64.7 38.79-4.82-96.51-2.64-172 .51-221.9-1.77-.17-3.52-.25-5.25-.25z"/><path fill="#7F7F7F" d="M1458.08 1663.51s2.87 65.45 6.74 100.67c0 0 15.31-8.14 22.86-14.62 0 0-6-95.5-1.11-118.16 4.89-22.66 17.35-46 35.65-50.51h.11c-35.63 1.61-63.07 38.58-64.25 82.62z"/><path fill="#000" d="M1477.74 1536.16c-18.7 20.08-30.64 49.89-31.52 82.66 0 0-2.33 95.11 4.48 122.23 1.65 7.17 6.6 15.17 14.12 23.14-3.87-35.22-6.74-100.67-6.74-100.67 1.2-44.81 29.58-82.3 66.14-82.68-38.37-3.26-45.5-38.37-46.48-44.68z"/><path fill="#E7E8E9" d="M2420.47 1754.35c4.68-96.07 2.34-170.88-.53-217.4 1.08-.07 2.15-.1 3.22-.1 17 0 33.08 8.43 45.2 23.73 12.12 15.3 19 35.43 19.57 57-.11 2.43-2.93 65.43-6.66 99.83-14.41 15.12-36.41 28.46-60.8 36.94z"/><path fill="#000" d="M2423.16 1534.93v3.85c16.42 0 31.94 8.17 43.69 23 11.75 14.83 18.56 34.66 19.15 55.81-.15 3.33-2.91 64.78-6.58 99-13.68 14.14-34.12 26.69-56.9 35 4.44-93.47 2.24-166.57-.55-212.79h1.18v-3.85l.01-.02zm-.01.02c-1.73 0-3.49.08-5.25.25 3.16 49.94 5.34 125.39.51 221.9 27.42-9.07 50.61-23.84 64.7-38.79 3.87-35.22 6.74-100.67 6.74-100.67-1.2-45-29.87-82.69-66.7-82.69z"/><path fill="#7F7F7F" d="M2437.43 1663.51s-2.87 65.45-6.74 100.67c0 0-15.31-8.14-22.86-14.62 0 0 6-95.5 1.11-118.16-4.89-22.66-17.35-46-35.65-50.51h-.11c35.63 1.61 63.07 38.58 64.25 82.62z"/><path fill="#000" d="M2417.77 1536.16c18.7 20.08 30.64 49.89 31.52 82.66 0 0 2.33 95.11-4.48 122.23-1.65 7.17-6.6 15.17-14.12 23.14 3.87-35.22 6.74-100.67 6.74-100.67-1.2-44.81-29.58-82.3-66.14-82.68 38.37-3.26 45.5-38.37 46.48-44.68z"/></g></svg>