<svg xmlns="http://www.w3.org/2000/svg" viewBox="0 0 3840 3261"><g fill="none"><path fill="#E7E8E9" d="M1674.23 1809.46c-12.07-.05-24.098-1.465-35.85-4.22-4.74-1.07-9.69-2.45-15.49-4.34-4.77-96.54-2.43-171.68.45-218.35 1.77.22 3.36.5 4.91.84 19.74 4.55 38.81 19.68 53.67 42.61 14.38 22.18 22.65 48.7 22.69 72.76 0 .75-1.68 78.33-6 108.39-8.03 1.58-16.197 2.355-24.38 2.31z"/><path fill="#000" d="M1625.14 1584.75c.93.15 1.81.32 2.67.52 19 4.38 38.12 19.6 52.5 41.78 14.18 21.86 22.33 48 22.38 71.67 0 2.19-1.67 76.27-5.82 106.8-7.465 1.37-15.04 2.04-22.63 2-11.933-.05-23.822-1.453-35.44-4.18-4.33-1-8.85-2.22-14-3.88-4.61-94.41-2.42-168.2.39-214.73l-.05.02zm-3.54-4.35c-3.16 49.94-5.34 125.39-.51 221.9 5.5 1.82 11.11 3.49 16.91 4.8 11.894 2.786 24.064 4.22 36.28 4.27 8.735.045 17.45-.837 26-2.63 4.57-29.5 6.25-110 6.25-110-.08-50.3-35.29-107.43-77.86-117.24-2.348-.516-4.726-.883-7.12-1.1h.05z"/><path fill="#000" d="M1550.12 1512c-28-6.31-53.61 4-72.38 24.2 1 6.31 8.11 41.43 46.48 44.67 1.94-.02 3.88.064 5.81.25 2.394.217 4.772.584 7.12 1.1 42.57 9.81 77.78 66.94 77.86 117.24 0 0-1.68 80.5-6.26 110v.06c19.36-4.18 32.74-13.07 36-24.05 7.67-23.79 7.7-119.43 7.7-119.43-.13-66.13-46.4-141.2-102.33-154.04z"/><path fill="#C91F1B" d="M1539.61 1554c-10.54 0-20.19-6-25.82-16-9-16-4.92-37.6 9.12-48.19 4.938-3.804 10.987-5.884 17.22-5.92 10.54 0 20.19 6 25.82 16 9 16 4.92 37.6-9.12 48.19-4.937 3.805-10.987 5.884-17.22 5.92z"/><path fill="#FFF" d="M1540.12 1487.74c9.13 0 17.53 5.24 22.47 14 3.946 7.18 5.224 15.527 3.61 23.56-1.326 7.775-5.492 14.78-11.69 19.66-4.272 3.302-9.51 5.11-14.91 5.15-9.13 0-17.53-5.24-22.47-14-3.945-7.182-5.224-15.527-3.61-23.56 1.325-7.776 5.49-14.782 11.69-19.66 4.272-3.302 9.51-5.11 14.91-5.15zm0-7.69c-7.07.034-13.936 2.387-19.54 6.7-15.52 11.7-20.07 35.54-10.15 53.14 6.32 11.23 17.23 17.93 29.17 17.93 7.07-.034 13.936-2.387 19.54-6.7 15.51-11.7 20.07-35.54 10.15-53.14-6.32-11.22-17.23-17.93-29.17-17.93z"/><path fill="#000" d="M1540.19 1480c11 0 21.67 6.14 28.06 17.48 10.1 17.93 5.59 42-10.09 53.86-5.332 4.124-11.87 6.383-18.61 6.43-11 0-21.67-6.15-28.06-17.48-10.1-17.93-5.59-42 10.09-53.87 5.333-4.12 11.87-6.376 18.61-6.42zm0-18.54c-10.77.035-21.233 3.604-29.78 10.16-23.17 17.48-29.79 51.64-15.07 77.77 9.5 16.86 26 26.92 44.21 26.92 10.77-.038 21.228-3.61 29.77-10.17 23.18-17.48 29.8-51.64 15.08-77.76-9.5-16.86-26-26.92-44.21-26.92z"/><path fill="#E7E8E9" d="M2221.28 1809.46c-8.173.043-16.33-.73-24.35-2.31-4.35-30.06-6-107.64-6-108.43 0-24 8.31-50.54 22.69-72.72 14.87-22.93 33.93-38.06 53.68-42.61 1.54-.35 3.13-.62 4.9-.84 2.88 46.67 5.22 121.81.45 218.35-5.8 1.89-10.75 3.27-15.48 4.34-11.766 2.757-23.806 4.173-35.89 4.22z"/><path fill="#000" d="M2270.37 1584.75c2.81 46.54 5 120.33.39 214.73-5.2 1.66-9.72 2.91-14.07 3.89-11.61 2.722-23.494 4.12-35.42 4.17-7.59.04-15.165-.63-22.63-2-4.15-30.54-5.78-104.62-5.82-106.8 0-23.69 8.2-49.81 22.38-71.67 14.38-22.18 33.52-37.41 52.48-41.78.87-.2 1.76-.37 2.69-.52v-.02zm3.59-4.31c-2.394.217-4.772.584-7.12 1.1-42.57 9.81-77.78 66.94-77.86 117.24 0 0 1.68 80.49 6.25 110 8.55 1.793 17.265 2.675 26 2.63 12.216-.05 24.386-1.484 36.28-4.27 5.81-1.31 11.41-3 16.91-4.8 4.82-96.51 2.64-172-.51-221.9h.05z"/><path fill="#000" d="M2345.39 1512c28-6.31 53.61 4 72.38 24.2-1 6.31-8.11 41.43-46.48 44.67-1.94-.02-3.88.064-5.81.25-2.394.217-4.772.584-7.12 1.1-42.57 9.81-77.78 66.94-77.86 117.24 0 0 1.68 80.5 6.26 110v.06c-19.36-4.18-32.74-13.07-36-24.05-7.67-23.79-7.7-119.43-7.7-119.43.13-66.13 46.39-141.2 102.33-154.04z"/><path fill="#C91F1B" d="M2355.9 1554c-6.233-.036-12.283-2.115-17.22-5.92-14-10.59-18.12-32.21-9.12-48.19 5.63-10 15.29-16 25.82-16 6.233.036 12.282 2.116 17.22 5.92 14 10.59 18.13 32.2 9.12 48.18-5.63 10.01-15.28 16.01-25.82 16.01z"/><path fill="#FFF" d="M2355.38 1487.74c5.4.038 10.638 1.847 14.91 5.15 6.2 4.878 10.365 11.884 11.69 19.66 1.614 8.033.335 16.378-3.61 23.56-4.94 8.77-13.34 14-22.47 14-5.392-.03-10.626-1.824-14.9-5.11-6.2-4.88-10.366-11.89-11.69-19.67-1.614-8.033-.336-16.38 3.61-23.56 4.94-8.77 13.34-14 22.47-14l-.01-.03zm.01-7.66c-11.94 0-22.85 6.7-29.17 17.93-9.92 17.6-5.36 41.44 10.15 53.14 5.604 4.313 12.47 6.666 19.54 6.7 11.94 0 22.85-6.7 29.17-17.93 9.92-17.6 5.37-41.44-10.15-53.14-5.604-4.313-12.47-6.666-19.54-6.7z"/><path fill="#000" d="M2355.32 1480c6.74.044 13.277 2.3 18.61 6.42 15.67 11.82 20.19 35.94 10.09 53.87-6.39 11.33-17.09 17.48-28.06 17.48-6.74-.047-13.278-2.306-18.61-6.43-15.67-11.82-20.19-35.93-10.09-53.86 6.39-11.34 17.09-17.48 28.06-17.48zm0-18.54c-18.19 0-34.71 10.06-44.21 26.92-14.72 26.13-8.1 60.29 15.08 77.76 8.542 6.56 19 10.132 29.77 10.17 18.18 0 34.71-10.06 44.21-26.92 14.72-26.13 8.1-60.29-15.07-77.77-8.547-6.556-19.01-10.125-29.78-10.16z"/></g></svg>