<?xml version="1.0" encoding="UTF-8"?>
<svg xmlns="http://www.w3.org/2000/svg" viewBox="0 0 1823 2191">
  <g fill="none" fill-rule="evenodd">
    <g fill-rule="nonzero">
      <g stroke="#000" stroke-width="8.67">
        <path fill="#E7E8E9" d="M1037.61 2078.75c0 52.44-56.46 107.91-126.11 107.91s-126.11-55.47-126.11-107.91 56.46-82 126.11-82 126.11 29.55 126.11 82z"/>
        <path fill="#000" d="M1239.35 1955.37c58.58-59.12-73.16-103.32-327.85-103.14-254.69-.16-386.44 44-327.85 103.14 8.21 10.14 20 19.93 33.89 29.25h-.12c28.403 18.928 55.544 39.685 81.25 62.14h.09c42.93 38.29 122.85 64.46 212.74 64.46 89.89 0 169.81-26.16 212.74-64.46 25.72-22.457 52.88-43.215 81.3-62.14h-.12c13.96-9.3 25.72-19.11 33.93-29.25z"/>
        <path fill="#BD292C" d="M1239.35 1955.37c-53.91 59.06-188.27 106-327.85 105.8-139.59.21-273.93-46.71-327.85-105.8-58.57-59.12 73.16-103.32 327.85-103.14 254.69-.16 386.43 44.03 327.85 103.14z"/>
        <path fill="#000" d="M1468.59 1779.68c39.83-46.56 20.39-87.77-78.92-116.9-96.36-29.2-272.57-46.32-478.17-46.42-205.61.08-381.82 17.21-478.17 46.41-99.3 29.13-118.75 70.34-78.91 116.91 12.86 14.92 31 29.47 52.47 43.28h-.23c47.453 30.19 92.947 63.353 136.21 99.29h.07c74.76 61.28 213.68 103.19 368.57 103.17 154.89-.02 293.81-41.92 368.57-103.17h.22c43.212-35.92 88.653-69.068 136.05-99.25h-.23c21.5-13.89 39.61-28.38 52.47-43.32z"/>
        <path fill="#BD292C" d="M1468.59 1779.68c-91 93.57-320.69 167.87-557.09 167.5-236.4.36-466.11-74-557.09-167.5-39.83-46.56-20.39-87.77 78.92-116.9 96.35-29.2 272.57-46.32 478.17-46.42 205.6.08 381.82 17.21 478.17 46.41 99.33 29.13 118.75 70.33 78.92 116.91z"/>
        <path fill="#000" d="M117 1600.28c70.515 43.4 138.394 90.944 203.28 142.38h.11c120.77 92.69 344.18 156.2 591.17 156.19 246.99-.01 470.4-63.5 591.17-156.19h.11c64.886-51.436 132.765-98.98 203.28-142.38H117.13"/>
      </g>
      <path fill="#E7E8E9" d="M908.57 1796.08c-186.71 0-369.16-25.1-527.63-72.58-146.51-43.9-261.74-104.22-324.47-169.86C20.36 1515.87 2.9 1478 4.58 1441c1.86-42.09 27.75-80.46 77-114 45.84-31.28 111.82-58.35 196.1-80.48 80.65-21.17 176.93-37.55 286.16-48.69 107-10.91 224-16.55 347.71-16.77 123.76.22 240.75 5.86 347.72 16.77 109.23 11.14 205.5 27.52 286.16 48.69 84.28 22.13 150.26 49.21 196.1 80.48 49.2 33.57 75.09 71.93 77 114 1.67 37-15.79 74.86-51.9 112.64-62.74 65.64-178 126-324.5 169.86-158.47 47.47-340.94 72.57-527.66 72.57l-5.9.01z"/>
      <path fill="#000" d="M911.5 1185.38c491.35.87 895.17 88 902.59 255.83 7.51 165.9-394.76 350.54-899.77 350.54h-5.75c-504.94 0-907.18-184.66-899.67-350.54 7.42-167.8 411.24-254.95 902.59-255.83h.01zm-.01-8.67c-123.89.22-241 5.87-348.14 16.79-109.45 11.16-206 27.58-286.82 48.81-84.76 22.25-151.19 49.54-197.44 81.09-50.4 34.38-76.92 73.89-78.85 117.42-.87 19.29 3.38 39.11 12.65 58.91 8.9 19 22.5 38.15 40.44 56.91 63.24 66.17 179.15 126.91 326.36 171 76.37 22.88 159.09 40.74 245.85 53.06 93.755 13.193 188.32 19.776 283 19.7h5.75c94.702.077 189.292-6.506 283.07-19.7 86.77-12.32 169.5-30.18 245.88-53.06 147.23-44.11 263.15-104.84 326.39-171 17.94-18.77 31.54-37.92 40.44-56.91 9.27-19.8 13.53-39.62 12.65-58.92-1.93-43.52-28.45-83-78.84-117.41-46.25-31.56-112.68-58.84-197.44-81.09-80.87-21.23-177.37-37.65-286.82-48.81-107.12-10.92-224.25-16.57-348.14-16.79h.01z"/>
      <path fill="#FFF" d="M289.92 1247.32l1.53-.38c32.29-8.11 67.44-15.57 104.47-22.17h.11L913.11 1379l-139.76 41.9-483.43-173.58z"/>
      <path fill="#7F7F7F" d="M396 1225.24L911.44 1379l-138.06 41.39-481.81-173c32.62-8.19 67.53-15.58 104.44-22.16l-.01.01zm.07-1.01h-.22c-37 6.61-72.2 14.07-104.5 22.18l-3.06.77 3 1.07 481.81 173 .3.11.3-.09 138.06-41.39 3.08-.92-3.08-.92-515.48-153.72-.22-.07.01-.02z"/>
      <path fill="#FFF" d="M909.76 1379l515.5-154.55h.11c37.85 6.71 73.71 14.31 106.61 22.58l1.53.38-483.29 173.49-140.46-41.9z"/>
      <path fill="#7F7F7F" d="M1425.29 1224.94c37.7 6.69 73.32 14.21 106.57 22.58l-481.66 172.87L911.44 1379l513.85-154.06zm-.06-1l-.22.07-513.85 154.07-3.08.92 3.08.92 138.77 41.39.3.09.3-.11 481.65-172.88 3-1.07-3.06-.77c-32.9-8.27-68.78-15.87-106.64-22.59h-.23l-.02-.04z"/>
      <path fill="#FFF" d="M906.08 1470.08l144.07-51.71 643.13 191.84-3.49 2.27c-44.93 29.18-99.79 56.08-163 80l-.66.25-620.05-222.65z"/>
      <path fill="#000" d="M1050.2 1420.39l638.54 190.48c-44.34 28.8-99.24 55.83-162.68 79.76l-614.29-220.55 138.44-49.69h-.01zm-.1-4l-1.19.43-138.44 49.69-10.08 3.62 10.08 3.62 614.29 220.55 1.33.48 1.32-.5c63.39-23.92 118.37-50.88 163.42-80.14l7-4.53-8-2.38-638.53-190.52-1.21-.36.01.04z"/>
      <path fill="#FFF" d="M296.42 1692.5c-62.74-23.66-117.24-50.32-162-79.24l-3.5-2.26 642.51-192.63 144 51.71-620.35 222.67-.66-.25z"/>
      <path fill="#000" d="M773.37 1420.39l138.4 49.69L297.1 1690.7c-62.94-23.74-117.47-50.52-161.64-79.05l637.91-191.26zm.11-4l-1.21.36L134.35 1608l-8 2.39 7 4.52c44.87 29 99.5 55.71 162.37 79.42l1.32.5 1.33-.48 614.7-220.65 10.08-3.62-10.08-3.62-138.4-49.69-1.19-.43v.05z"/>
      <path fill="#FFF" stroke="#000" stroke-width="3.85" d="M1479.3 1403.2c4.73 92.75-249.29 196-567.8 195.62-318.5.4-572.5-102.82-567.8-195.62 4.67-93.64 258.7-142.27 567.8-142.76 309.1.49 563.13 49.12 567.8 142.76z"/>
    </g>
    <g fill-rule="nonzero">
      <path fill="#A8A8A8" d="M1238.58 1299.83c-2.54-23.08-4.41-66-4.42-66 .77-28.82 18.71-53 42-54.13-12 3-20.18 18.24-23.36 33.09-3.18 14.85.73 77.42.73 77.42-4.92 4.28-14.95 9.62-14.95 9.62z"/>
      <path fill="#7F7F7F" d="M1285.96 1180.54c-1.54-.338-3.1-.578-4.67-.72-25.76-2.49-46.31 23.1-47.14 54 .01 0 1.88 42.92 4.42 66-4.92-5.22-8.17-10.47-9.25-15.16-4.46-17.77-2.93-80.09-2.93-80.09.673-25.167 11.315-47.68 27.377-60.37"/>
      <path fill="#A8A8A8" d="M584 1299.83c2.54-23.08 4.41-66 4.42-66-.77-28.82-18.71-53-42-54.13 12 3 20.18 18.24 23.36 33.09 3.18 14.85-.73 77.42-.73 77.42 4.95 4.28 14.95 9.62 14.95 9.62z"/>
      <path fill="#7F7F7F" d="M568.852 1144.24c16.035 12.696 26.656 35.188 27.328 60.33 0 0 1.53 62.32-2.93 80.09-1.08 4.69-4.33 9.94-9.25 15.16 2.54-23.08 4.41-66 4.42-66-.83-30.9-21.38-56.49-47.14-54-1.57.142-3.13.382-4.67.72"/>
      <path fill="#7F7F7F" d="M541.28 1179.82c-1.57.142-3.13.382-4.67.72-27.89 6.43-51 43.86-51 76.81 0 0 1.1 52.74 4.1 72.07-12.69-2.74-21.46-8.56-23.58-15.76-5-15.58-5-78.25-5-78.25.015-32.13 16.783-67.573 40.446-87.102-2.247-9.593-1.054-20.104 4.044-29.148 6.26-11.05 17.08-17.64 29-17.64v-.05c7.057.024 13.91 2.364 19.51 6.66 11.037 8.356 16.346 22.456 14.722 36.11m684.915-.04c-1.6-13.65 3.71-27.712 14.723-36.02 5.6-4.296 12.453-6.636 19.51-6.66v.05c11.95 0 22.78 6.64 29 17.64 5.09 9.04 6.285 19.546 4.043 29.135 23.64 19.537 40.382 54.955 40.397 87.065 0 0 0 62.67-5 78.25-2.12 7.2-10.89 13.02-23.58 15.76 3-19.33 4.1-72.07 4.1-72.07 0-32.95-23.11-70.38-51-76.81-1.54-.338-3.1-.578-4.67-.72"/>
    </g>
    <path fill="#000" fill-rule="nonzero" d="M911.5 260.09c332 0 601.08 327.22 601.08 623.69 0 0 0 430-43.21 539.74-34.63 95.35-271.19 169.13-557.88 169.13s-523.25-73.78-557.88-169.13c-43.2-109.79-43.21-539.74-43.21-539.74 0-296.47 269.11-623.69 601.08-623.69h.02zm-.02-13.46c-82 0-162.68 19.22-239.9 57.14-36.797 18.16-71.738 39.86-104.33 64.79-32.647 24.963-63.01 52.78-90.73 83.12-27.64 30.226-52.66 62.747-74.79 97.21-21.87 34.014-40.766 69.85-56.48 107.11-15.407 36.475-27.385 74.305-35.78 113-8.182 37.71-12.362 76.18-12.47 114.77 0 1.08.06 109.18 5.41 229.3 7.23 162.16 20.23 268.21 38.66 315.2 9.57 26.18 32 50.81 66.76 73.2 32.51 21 75 39.54 126.31 55.23 104.18 31.85 238.21 49.4 377.39 49.4 139.18 0 273.22-17.54 377.39-49.4 51.3-15.69 93.8-34.27 126.31-55.23 34.73-22.39 57.19-47 66.76-73.2 18.43-47 31.44-153 38.66-315.2C1526 993 1526 884.85 1526 883.77c-.108-38.59-4.288-77.06-12.47-114.77-8.395-38.695-20.373-76.525-35.78-113-15.718-37.274-34.622-73.124-56.5-107.15-22.13-34.463-47.15-66.984-74.79-97.21-27.72-30.34-58.083-58.157-90.73-83.12-32.592-24.93-67.533-46.63-104.33-64.79-77.22-37.91-157.93-57.14-239.9-57.14l-.02.04z"/>
    <path fill="#FFF" fill-rule="nonzero" d="M1076.5 381c75.08 36.86 143.65 88.89 203.83 154.65 57.65 63 105.29 137.14 137.76 214.4 32.9 78.28 50.29 160.06 50.29 236.51 0 1.61-.06 57.82-2 135.55 6.2-123.5 6.33-240.42 6.33-242.6 0-66.31-15.08-137.25-43.62-205.15-28.17-67-69.49-131.32-119.5-186-52.19-57-111.68-102.16-176.8-134.14C1063.45 320.24 991.08 303 917.7 303c-47.35.052-94.425 7.23-139.64 21.29 16.76-1.58 33.58-2.373 50.46-2.38 84.61-.03 168.04 19.87 247.98 59.09z"/>
    <path stroke="#000" stroke-width="48.07" d="M910.76 251.24s-3-122.93 80.19-167"/>
    <path fill="#000" d="M991 1c-1.11 0-2.24 0-3.35.07-45.222 1.854-80.67 39.514-79.785 84.766.884 45.25 37.775 81.498 83.035 81.584 1.11 0 2.24 0 3.35-.07 33.345-1.32 62.674-22.436 74.505-53.64 11.83-31.202 3.872-66.455-20.215-89.55C1033.086 9.275 1012.457.97 991 1z"/>
    <path fill="#E7E8E9" fill-rule="nonzero" d="M991 9.67c40.562.048 73.638 32.525 74.427 73.08.79 40.554-30.998 74.293-71.527 75.92-1.007.04-2.007.06-3 .06-40.562-.048-73.638-32.525-74.427-73.08-.79-40.554 30.998-74.293 71.527-75.92 1 0 2-.06 3-.06z"/>
    <g fill-rule="nonzero">
      <path fill="#7F7F7F" d="M452.8 1433.22s2.68 61.24 6.31 94.2c0 0 14.33-7.62 21.39-13.68 0 0-5.58-89.37-1-110.57 4.58-21.2 16.23-43 33.36-47.26h.1c-33.39 1.5-59.06 36.09-60.16 77.31z"/>
      <path fill="#000" d="M527.3 1357.45c-2.2-.473-4.428-.807-6.67-1-36.79-3.54-66.15 33.01-67.33 77.14.01-.01 2.69 61.2 6.31 94.2-7.04-7.47-11.67-14.95-13.22-21.66-6.37-25.38-4.19-114.38-4.19-114.38.96-35.936 16.135-68.07 39.045-86.2"/>
      <path fill="#7F7F7F" d="M1366.47 1527.77c3.62-33 6.3-94.21 6.31-94.2-1.1-41.16-26.72-75.73-60-77.31 17.13 4.24 28.82 26.06 33.36 47.26 4.54 21.2-1 110.57-1 110.57 7.01 6.06 21.33 13.68 21.33 13.68z"/>
      <path fill="#000" d="M1344.817 1305.543c22.915 18.13 38.094 50.267 39.053 86.207 0 0 2.18 89-4.19 114.38-1.55 6.71-6.18 14.19-13.22 21.66 3.62-33 6.3-94.21 6.31-94.2-1.18-44.13-30.54-80.68-67.33-77.14-2.242.193-4.47.527-6.67 1"/>
    </g>
    <g fill-rule="nonzero">
      <path fill="#000" d="M1305.44 1356.45c-2.242.193-4.47.527-6.67 1-39.83 9.18-72.79 62.64-72.86 109.71 0 0 1.58 75.33 5.85 102.94v.06c-18.11-3.91-30.63-12.23-33.66-22.51-7.17-22.26-7.21-111.76-7.21-111.76.082-45.992 24.067-96.643 57.89-124.538-3.2-13.693-1.495-28.694 5.78-41.602 8.89-15.77 24.37-25.19 41.37-25.19h.01c10.078.033 19.866 3.374 27.86 9.51 15.745 11.874 23.325 31.986 21.017 51.473"/>
      <path fill="#FFF" d="M1296 1261.9c6.307.038 12.427 2.146 17.42 6 14.67 11.06 18.89 33.63 9.44 50.41-6 10.61-16 16.36-26.25 16.36-6.307-.04-12.427-2.146-17.42-6-14.67-11.06-18.89-33.63-9.44-50.4 6-10.61 16-16.36 26.25-16.36v-.01z"/>
      <path fill="#C71F1B" d="M1296 1269.59c4.944.037 9.74 1.695 13.65 4.72 5.703 4.492 9.535 10.943 10.75 18.1 1.49 7.402.313 15.092-3.32 21.71-4.54 8.05-12.23 12.86-20.6 12.86-4.943-.034-9.738-1.69-13.65-4.71-5.703-4.493-9.534-10.943-10.75-18.1-1.49-7.402-.313-15.092 3.32-21.71 4.54-8.05 12.24-12.86 20.6-12.86v-.01z"/>
    </g>
    <path fill="#000" fill-rule="nonzero" d="M481.245 1305.55c-2.316-19.494 5.264-39.614 21.015-51.5 7.994-6.136 17.782-9.477 27.86-9.51 17.02-.01 32.48 9.4 41.37 25.18 7.277 12.91 8.982 27.92 5.777 41.616 33.83 27.892 57.816 78.553 57.913 124.554 0 0-.04 89.5-7.21 111.76-3.03 10.28-15.55 18.6-33.66 22.51 4.27-27.67 5.85-103 5.85-103-.07-47.07-33.03-100.53-72.86-109.71-2.2-.473-4.428-.807-6.67-1"/>
    <path fill="#FFF" fill-rule="nonzero" d="M530.06 1261.9c-6.615.033-13.037 2.236-18.28 6.27-14.52 11-18.78 33.26-9.5 49.73 5.92 10.5 16.12 16.78 27.3 16.78 6.615-.033 13.037-2.236 18.28-6.27 14.51-11 18.78-33.26 9.5-49.73-5.92-10.5-16.12-16.78-27.3-16.78z"/>
    <path fill="#C71F1B" d="M530.06 1269.59c8.36 0 16.06 4.81 20.6 12.86 3.633 6.618 4.81 14.308 3.32 21.71-1.216 7.157-5.047 13.607-10.75 18.1-3.91 3.025-8.706 4.683-13.65 4.72-8.36 0-16.06-4.81-20.6-12.86-3.633-6.618-4.81-14.308-3.32-21.71 1.215-7.157 5.047-13.608 10.75-18.1 3.91-3.025 8.706-4.683 13.65-4.72z"/>
  </g>
</svg>