<svg xmlns="http://www.w3.org/2000/svg" viewBox="0 0 3840 3261"><g fill="none"><path fill="#000" d="M2605.42 2809.18c184.52-69.33 297.52-162.63 293.38-250.76-4.94-107.7-175.28-182.93-430.16-224.25 174.15-59.6 697.4-221.2 1393.11-276v-21.97c-522.81 0-1238.68 140.66-1589 274.2-103.17-8.89-214.55-13.48-330.54-13.68-116.15.2-227.67 4.8-331 13.71C1261 2176.88 545.1 2036.2 22.24 2036.2v21.93c695.93 54.86 1219.29 216.55 1393.27 276.1-254.69 41.33-424.88 116.53-429.81 224.19-4.13 88.08 108.73 181.32 293.06 250.65-113.43 67.54-305 241.41-522.41 450.93h508.4c129.48-176 236.56-303.07 299.22-375 115.81 20.44 243.62 32.23 378.29 32 134.49.18 262.15-11.58 377.84-32 62.67 72 169.72 199 299.16 375h508.43c-217.31-209.46-408.85-383.28-522.27-450.82z" opacity=".04"/><path fill="#E7E8E9" stroke="#000" stroke-width="8.67" d="M2076.76 2341.39c0 56-60.34 115.32-134.77 115.32s-134.77-59.27-134.77-115.32c0-56.05 60.34-87.63 134.77-87.63s134.77 31.59 134.77 87.63z"/><path fill="#000" stroke="#000" stroke-width="8.67" d="M2292.36 2209.55c62.6-63.18-78.18-110.41-350.36-110.22-272.17-.17-413 47.05-350.36 110.22 8.78 10.84 21.35 21.29 36.21 31.26h-.13c30.354 20.225 59.358 42.406 86.83 66.4h.1c45.87 40.92 131.29 68.88 227.35 68.88s181.47-28 227.35-68.88c27.49-23.997 56.515-46.177 86.89-66.4h-.13c14.89-9.95 27.47-20.43 36.25-31.26z"/><path fill="#C91F1B" stroke="#000" stroke-width="8.67" d="M2292.36 2209.55c-57.61 63.12-201.19 113.32-350.36 113.07-149.17.23-292.74-49.91-350.36-113.07-62.59-63.18 78.18-110.41 350.36-110.22 272.18-.17 413 47.05 350.36 110.22z"/><path fill="#000" stroke="#000" stroke-width="8.67" d="M2537.33 2021.79c42.57-49.76 21.79-93.8-84.33-124.92-103-31.2-291.28-49.5-511-49.6-219.73.09-408 18.39-511 49.6-106.12 31.13-126.9 75.17-84.33 124.93 13.75 15.94 33.09 31.49 56.07 46.26h-.25c50.71 32.263 99.327 67.704 145.56 106.11h.08c79.89 65.49 228.35 110.27 393.87 110.26 165.52-.01 314-44.8 393.87-110.26h.23c46.182-38.422 94.75-73.883 145.41-106.17h-.25c22.98-14.75 42.33-30.24 56.07-46.21z"/><path fill="#C91F1B" stroke="#000" stroke-width="8.67" d="M2537.33 2021.79c-97.22 100-342.7 179.39-595.33 179-252.63.39-498.11-79-595.33-179-42.57-49.76-21.79-93.8 84.33-124.92 103-31.2 291.28-49.5 511-49.6 219.72.09 408 18.39 511 49.6 106.12 31.13 126.9 75.13 84.33 124.92z"/><path fill="#000" stroke="#000" stroke-width="8.67" d="M1092.91 1830.08c75.354 46.38 147.89 97.19 217.23 152.16h.11c129.06 99.05 367.8 166.93 631.75 166.91 263.95-.02 502.7-67.86 631.75-166.91h.11c69.34-54.97 141.876-105.778 217.23-152.16h-1698"/><path fill="#7F7F7F" d="M1938.87 2039c-199.5 0-394.45-26.82-563.77-77.55-156.52-46.9-279.61-111.33-346.62-181.44-38.53-40.31-57.16-80.74-55.37-120.15 2-44.88 29.61-85.8 82.11-121.62 49-33.4 119.43-62.33 209.47-86 86.17-22.62 189-40.13 305.75-52 114.31-11.65 239.32-17.68 371.55-17.92 132.25.24 257.25 6.26 371.56 17.92 116.71 11.9 219.58 29.4 305.75 52 90 23.64 160.51 52.56 209.47 86 52.5 35.82 80.12 76.74 82.11 121.63 1.78 39.41-16.85 79.84-55.38 120.15-67 70.11-190.12 134.54-346.65 181.44-169.32 50.73-364.3 77.54-563.8 77.54h-6.18z"/><path fill="#000" d="M1942 1386.7c525.08.93 956.62 94.07 964.55 273.39 8 177.29-421.86 374.61-961.54 374.61h-6.14c-539.6 0-969.46-197.34-961.43-374.61 7.93-179.32 439.47-272.45 964.56-273.39zm0-8.67c-132.38.24-257.53 6.27-372 17.94-116.94 11.92-220 29.47-306.42 52.14-90.52 23.76-161.44 52.89-210.81 86.58-53.68 36.63-81.94 78.69-84 125-.93 20.52 3.6 41.61 13.47 62.68 9.48 20.24 24 40.65 43.1 60.66 67.51 70.64 191.28 135.49 348.51 182.6 81.59 24.45 170 43.52 262.64 56.69 100.173 14.08 201.212 21.097 302.37 21h6.14c101.174.097 202.23-6.92 302.42-21 92.7-13.17 181.08-32.24 262.67-56.68 157.24-47.11 281-112 348.54-182.6 19.12-20 33.63-40.42 43.1-60.66 9.86-21.07 14.4-42.16 13.47-62.69-2-46.32-30.31-88.38-84-125-49.37-33.68-120.3-62.81-210.81-86.58-86.39-22.68-189.46-40.23-306.39-52.11-114.45-11.67-239.6-17.7-372-17.94v-.03z"/><path fill="#E7E8E9" stroke="#000" stroke-width="8.67" d="M1794.39 1637.84l147.9 53.1 147.93-53.1-148.29-44.23z"/><path fill="#FFF" d="M1277.86 1452.9l1.53-.38c34.5-8.66 72.06-16.64 111.64-23.69h.11l552.47 164.8-149.23 44.74-516.52-185.47z"/><path fill="#7F7F7F" d="M1391.11 1429.3l550.82 164.31-147.54 44.24L1279.51 1453c34.86-8.75 72.17-16.65 111.6-23.69v-.01zm.06-.99h-.23c-39.58 7.06-77.15 15-111.67 23.7l-3.06.77 3 1.07 514.88 184.86.3.11.3-.09 147.54-44.24 3.08-.92-3.08-.92-550.82-164.31-.22-.07-.02.04z"/><path fill="#FFF" d="M1940.25 1593.61L2491 1428.48h.11c40.44 7.17 78.77 15.29 113.92 24.13l1.53.38-516.35 185.33-149.96-44.71z"/><path fill="#7F7F7F" d="M2491.06 1429c40.29 7.15 78.36 15.19 113.89 24.13l-514.72 184.75-148.29-44.24L2491.06 1429zm-.06-1l-.22.07-549.12 164.64-3.08.92 3.08.92 148.29 44.24.3.09.3-.11L2605.27 1454l3-1.07-3.06-.77c-35.16-8.84-73.5-17-114-24.14h-.23l.02-.02z"/><path fill="#FFF" d="M1936.6 1690.94l153.57-55.12 687 204.92-3.49 2.27c-48 31.18-106.62 59.92-174.22 85.42l-.66.25-662.2-237.74z"/><path fill="#000" d="M2090.22 1637.84l682.37 203.55c-47.39 30.78-106 59.66-173.85 85.24l-656.46-235.69 147.94-53.1zm-.11-4l-1.19.43-147.92 53.05-10.08 3.62 10.08 3.62 656.46 235.69 1.33.48 1.32-.5c67.72-25.55 126.46-54.36 174.58-85.61l7-4.53-8-2.38-682.37-203.55-1.21-.36v.04z"/><path fill="#FFF" d="M1284.74 1928.51c-67-25.28-125.28-53.77-173.1-84.67l-3.5-2.26 686.3-205.76 153.56 55.12-662.6 237.82-.66-.25z"/><path fill="#000" d="M1794.39 1637.84l147.9 53.1-656.87 235.77c-67.26-25.37-125.53-54-172.73-84.48l681.71-204.39h-.01zm.12-4l-1.21.36-681.71 204.39-8 2.39 7 4.52c47.94 31 106.3 59.52 173.46 84.85l1.32.5 1.33-.48 656.87-235.77 10.08-3.62-10.08-3.62-147.9-53.1-1.19-.43.03.01zm2088.68-525.27c-556.86 0-1331 229.06-1658.06 432.9l190.63 34.39s601.07-336.48 1467.43-435.3v-31.99z"/><path fill="#000" d="M2212.06 1544l10.54-6.57c80.31-50.05 190.8-103.32 319.52-154 128.13-50.48 275-98.69 424.61-139.42 332.13-90.39 657.61-140.18 916.46-140.18h4.81v41l-4.24.48c-197.35 22.51-397.19 59.37-594 109.55-156.892 39.972-311.532 88.307-463.26 144.8-255.33 95.25-406.88 179.53-408.39 180.37l-1.5.84-204.55-36.87zm1666.34-430.61c-257.25.61-579.87 50.21-909.16 139.84-149.32 40.64-295.8 88.73-423.62 139.09-122.58 48.29-228.48 98.86-307.32 146.7l176.63 31.86c16.47-9 165.66-89.65 408-180.07 152.07-56.632 307.062-105.088 464.31-145.16 195.86-49.95 394.73-86.73 591.18-109.33l-.02-22.93zm39.23 4381.85c580.34-2749.72-1647-3681.51-1647-3681.51l169.43-71.82s826.07 250.84 1647 666.41v3086.92h-169.43z"/><path fill="#000" d="M3913.09 5494.28c35.31-167.3 61.23-333.47 77.05-493.9 15.13-153.44 21.42-305.7 18.7-452.56-5.06-273.19-41.45-537.78-108.13-786.4-112.31-418.71-311.56-800.5-592.22-1134.79-111.82-132.904-234.36-256.408-366.38-369.27-106.044-90.788-217.844-174.63-334.7-251-197.21-128.7-337.14-187.79-338.53-188.38l-10.15-4.25 179.56-76.11 1.55-.66 1.61.49c2.07.63 210.19 64.06 515.92 177.46 179.55 66.6 357.16 137.14 527.88 209.68 213.42 90.68 416.62 184.74 604 279.58l2.54 1.29v3094.4h-179.88l1.18-5.58zm169.41-3083.11c-186.45-94.3-388.57-187.83-600.82-278-170.58-72.48-348-143-527.45-209.51-291.34-108.06-493.93-170.7-513.86-176.82l-158 67c35.34 15.8 161.92 75.09 329.77 184.61 117.19 76.534 229.314 160.56 335.67 251.55 132.426 113.18 255.342 237.036 367.51 370.32 281.61 335.34 481.56 718.35 594.27 1138.41 66.92 249.38 103.43 514.75 108.52 788.73 2.74 147.24-3.57 299.9-18.73 453.72-15.68 159-41.26 323.63-76 489.4h159.12V2411.17zM1.42 1108.57c556.86 0 1331 229.06 1658.06 432.9l-190.63 34.39S867.77 1239.38 1.42 1140.56v-31.99z"/><path fill="#000" d="M1468 1580.88l-1.5-.84c-1.5-.84-153.06-85.12-408.39-180.37-151.728-56.493-306.368-104.828-463.26-144.8-196.79-50.18-396.64-87-594-109.55l-4.24-.48v-41H1.4c258.86 0 584.33 49.78 916.46 140.18 149.65 40.73 296.48 88.94 424.61 139.42 128.72 50.71 239.21 104 319.52 154l10.54 6.57-204.53 36.87zM6.2 1136.3c196.45 22.61 395.32 59.39 591.18 109.33 157.248 40.072 312.24 88.528 464.31 145.16 242.32 90.41 391.51 171 408 180.07L1646.3 1539c-78.83-47.84-184.74-98.41-307.32-146.7-127.81-50.35-274.3-98.45-423.62-139.09-329.28-89.63-651.9-139.21-909.15-139.84l-.01 22.93zM-33 5495.24c-580.34-2749.72 1647-3681.51 1647-3681.51l-169.43-71.82s-826.07 250.84-1647 666.41v3086.92H-33z"/><path fill="#000" d="M-27.3 5499.87h-179.85v-3094.4l2.54-1.29c187.35-94.84 390.55-188.9 604-279.58 170.72-72.54 348.33-143.08 527.88-209.68 305.73-113.39 513.85-176.83 515.92-177.46l1.61-.49 1.55.66 179.56 76.11-10.15 4.25c-1.39.58-141.32 59.67-338.53 188.38-116.856 76.37-228.656 160.212-334.7 251-132.02 112.862-254.56 236.366-366.38 369.27C295.47 2960.92 96.21 3342.72-16.1 3761.42c-66.69 248.62-103.07 513.21-108.13 786.4-2.72 146.86 3.57 299.13 18.7 452.56 15.82 160.43 41.75 326.6 77.05 493.9l1.18 5.59zm-170.59-9.27h159.17c-34.78-165.77-60.36-330.39-76-489.4-15.17-153.82-21.47-306.47-18.73-453.72 5.09-274 41.6-539.35 108.52-788.73 112.71-420.05 312.66-803.07 594.27-1138.41C681.492 2487.05 804.39 2363.19 936.8 2250c106.35-91.018 218.47-175.07 335.66-251.63 167.85-109.51 294.43-168.8 329.77-184.61l-158-67c-19.94 6.12-222.53 68.76-513.86 176.82-179.41 66.54-356.87 137-527.45 209.51-212.25 90.18-414.37 183.71-600.82 278l.01 3079.51z"/><path fill="#E7E8E9" stroke="#000" stroke-width="9.27" d="M1788.93 1637.82l147.9 53.1 147.94-53.1-148.29-44.24z"/><path fill="#FFF" d="M1272.27 1452.87l1.64-.41c34.5-8.67 72.07-16.64 111.64-23.69h.12l552.6 164.84-149.35 44.78-516.65-185.52z"/><path fill="#7F7F7F" d="M1385.64 1429.27l550.84 164.32-147.55 44.24L1274 1453c34.86-8.75 72.17-16.65 111.61-23.69l.03-.04zm.03-1.01h-.24c-39.59 7.06-77.16 15-111.68 23.7l-3.27.82 3.18 1.14 514.9 184.87.32.11.32-.1 147.55-44.24 3.29-1-3.29-1-550.84-164.32-.23-.07-.01.09z"/><path fill="#FFF" d="M1934.68 1593.58l550.9-165.17h.12c40.45 7.17 78.78 15.29 113.93 24.13l1.64.41-516.48 185.38-150.11-44.75z"/><path fill="#7F7F7F" d="M2485.61 1428.94c40.29 7.15 78.36 15.19 113.89 24.13l-514.73 184.75-148.3-44.24 549.14-164.64zm-.06-1.05l-.23.07-549.14 164.64-3.29 1 3.29 1 148.3 44.24.32.1.32-.11L2599.85 1454l3.18-1.14-3.27-.82c-35.16-8.84-73.51-17-114-24.14h-.24l.03-.01z"/><path fill="#000" d="M1930.75 1690.92l154-55.26 687.3 205-3.73 2.42c-48 31.19-106.64 59.93-174.25 85.44l-.71.27-662.61-237.87z"/><path fill="#000" d="M2084.77 1637.82l682.39 203.56c-47.39 30.78-106.05 59.66-173.85 85.24l-656.48-235.7 147.94-53.1zm-.12-4.32l-1.27.46-147.94 53.1-10.77 3.87 10.77 3.87 656.48 235.7 1.42.51 1.42-.53c67.74-25.56 126.5-54.37 174.64-85.64l7.46-4.84-8.52-2.54-682.39-203.56-1.29-.39-.01-.01z"/><path fill="#191919" d="M1279.22 1928.62c-67-25.29-125.29-53.78-173.13-84.68l-3.74-2.42L1789 1635.66l153.92 55.26-663 238-.7-.3z"/><path fill="#191919" d="M1788.93 1637.82l147.9 53.1-656.89 235.78c-67.27-25.37-125.53-54-172.74-84.48l681.72-204.39.01-.01zm.11-4.31l-1.3.39L1106 1838.27l-8.53 2.56 7.48 4.83c48 31 106.33 59.54 173.52 84.88l1.42.53 1.42-.51 656.89-235.77 10.77-3.87-10.77-3.87-147.9-53.1-1.27-.46.01.02z"/><path fill="#232323" d="M-222 4128.27c0-1447.39 1847.6-2327.91 1847.6-2327.91l-181.12-58.46S650 1913.36-222 2308.85v1819.42z"/><path fill="#000" d="M-219 4128.27h-6V2306.92l1.76-.8c199-90.24 410.43-176.21 628.49-255.52 174.44-63.45 353.48-122.8 532.14-176.4 304.21-91.28 504.48-134.79 506.46-135.22l.79-.17.77.25 188.3 60.77-6.81 3.25c-1.15.55-117.4 56.21-288.54 160.13-100.51 61-200 126.51-295.73 194.63C923 2243 809 2332.49 703.68 2423.9c-267.92 232.64-481.38 478.8-634.45 731.63-90.85 150.07-161.16 304.19-209 458.07C-192.32 3782.85-219 3956-219 4128.27zm0-1817.48v1675.4c10.868-127.095 35.52-252.633 73.52-374.4 48-154.36 118.48-308.94 209.6-459.43 153.41-253.38 367.29-500 635.71-733.08 105.43-91.54 219.63-181.18 339.43-266.43 95.84-68.2 195.46-133.75 296.09-194.85 148-89.88 255.1-143.72 282.23-157.07L1444.36 1745c-14 3.07-210.94 46.63-505.29 135-178.54 53.57-357.46 112.89-531.79 176.29C190 2135.27-20.66 2220.9-219 2310.79z"/><path fill="#232323" d="M1.42 1104.25c556.86 0 1331 214.83 1658.06 406l-190.63 32.25S867.77 1226.93 1.42 1134.26v-30.01z"/><path fill="#000" d="M1468.35 1545.64l-.9-.47c-1.5-.79-153.12-79.87-408.56-169.25-152.096-53.113-306.788-98.478-463.48-135.92-195.713-46.872-394.22-81.196-594.31-102.76l-2.68-.29v-35.7h3c258.69 0 584 46.67 915.95 131.41 149.58 38.18 296.34 83.38 424.41 130.7 128.61 47.52 239 97.42 319.22 144.32l7.13 4.17-199.78 33.79zM4.42 1131.56c199.47 21.63 397.363 55.923 592.48 102.67 156.9 37.484 311.8 82.903 464.1 136.08 245.55 85.93 395.38 162.39 408.33 169.08l181.45-30.7c-79.28-45.5-186.6-93.71-311.08-139.71-127.88-47.25-274.43-92.38-423.82-130.51-330.22-84.29-653.75-130.86-911.46-131.22v24.31z"/><path fill="#000" d="M1636.47 1529.57l-23.94-13.57-6-3.39-3-1.69-3-1.6-12.17-6.42-12.17-6.42c-4.06-2.14-8.09-4.31-12.23-6.3l-24.67-12.18c-8.18-4.15-16.54-7.93-24.84-11.83-8.3-3.9-16.61-7.79-24.95-11.61l-25.17-11.12-12.59-5.56c-4.18-1.89-8.45-3.58-12.67-5.38-67.56-28.66-136.26-54.6-205.6-78.65-69.34-24.05-139.38-46.11-209.86-66.6-70.48-20.49-141.44-39.34-212.77-56.68-71.33-17.34-143.06-33-215.1-47.09-72.04-14.09-144.41-26.48-217.06-37s-145.58-19.11-218.74-25.23c-73.16-6.12-146.54-9.69-220-9.78 73.42 0 146.81 3.5 220 9.53 73.19 6.03 146.12 14.56 218.79 25 72.67 10.44 145.06 22.78 217.14 36.76 72.08 13.98 143.84 29.55 215.19 46.85s142.35 36 212.88 56.45c70.53 20.45 140.59 42.43 210 66.39s138.16 49.85 205.8 78.45c4.22 1.79 8.49 3.48 12.68 5.37l12.6 5.55 25.2 11.1c8.35 3.81 16.65 7.73 25 11.59 8.35 3.86 16.69 7.67 24.88 11.81l24.7 12.19c4.14 2 8.19 4.16 12.25 6.29l12.19 6.41 12.19 6.41 3 1.6 3 1.69 6 3.39 24 13.54-.96 1.73z"/><path fill="#000" d="M1526.07 1543.37l-22.66-12.7-5.67-3.18c-1.88-1.07-3.78-2.12-5.7-3.11l-11.5-6-11.5-6c-3.85-2-7.64-4.09-11.54-6l-23.28-11.55c-3.89-1.91-7.74-3.89-11.66-5.73l-11.76-5.53-23.53-11.06-23.73-10.62-11.87-5.3-5.94-2.64-6-2.55c-63.65-27.49-128.31-52.62-193.56-76.08s-131.13-45.18-197.43-65.5c-66.3-20.32-133.06-39.18-200.17-56.68-67.11-17.5-134.62-33.44-202.44-48-67.82-14.56-135.95-27.58-204.38-38.87s-137.16-20.81-206.15-28c-68.99-7.19-138.24-12-207.59-13.42 69.36 1.33 138.62 6 207.63 13 69.01 7 137.77 16.46 206.23 27.61 68.46 11.15 136.67 24.13 204.53 38.54 67.86 14.41 135.4 30.32 202.58 47.63 67.18 17.31 134 36.14 200.34 56.34 66.34 20.2 132.31 41.84 197.65 65.18 65.34 23.34 130.08 48.38 193.84 75.78l6 2.54 5.95 2.64 11.89 5.29 23.75 10.6 23.58 11 11.79 5.51c3.93 1.83 7.79 3.82 11.69 5.72l23.34 11.52c3.91 1.88 7.72 4 11.57 6l11.53 6 11.53 6c1.93 1 3.83 2 5.72 3.1l5.68 3.17 22.74 12.69-1.5 2.66z"/><g fill="#000" opacity=".45"><path d="M1482.32 1755c-79 24.9-157.58 51.05-236 77.61-78.42 26.56-156.63 53.87-234.58 81.83-77.95 27.96-155.64 56.62-233 86-38.667 14.727-77.283 29.64-115.85 44.74-38.567 15.1-77.01 30.433-115.33 46-76.667 31.153-152.893 63.397-228.68 96.73-75.7 33.42-150.85 68.08-225 104.72-9.25 4.61-18.55 9.12-27.76 13.81l-27.66 14-27.53 14.25L4 2338.3l-6.84 3.63-13.68 7.27c-36.45 19.47-72.59 39.48-108.17 60.41s-70.59 42.77-104.75 65.78c-34.16 23.01-67.44 47.25-99.06 73.34l2.17-2.49-54.23 90.08-54.44 89.95-54.68 89.81-54.88 89.68c-36.667 59.733-73.42 119.42-110.26 179.06s-73.793 119.207-110.86 178.7l.79-1.89-23.65 91.18-23.83 91.13-24.09 91.06c-8.06 30.347-16.183 60.68-24.37 91l-1.94-.48c6.84-30.667 13.767-61.297 20.78-91.89l21.09-91.81 21.32-91.75 21.5-91.71.22-.93.57-1c35.727-60.307 71.567-120.55 107.52-180.73 35.953-60.18 71.993-120.3 108.12-180.36l54.3-90 54.51-89.91 54.74-89.77 55-89.64.9-1.48 1.26-1c32.56-26.3 66.58-50.49 101.34-73.41 34.76-22.92 70.3-44.56 106.32-65.29 36.02-20.73 72.46-40.6 109.28-59.84l13.8-7.2 6.9-3.6 6.93-3.53 27.73-14.13 27.86-13.87c9.27-4.65 18.64-9.11 27.95-13.67 149.32-72.4 302-137.33 456.05-198.5 154.05-61.17 309.68-118.28 466.18-172.74 78.253-27.227 156.737-53.763 235.45-79.61 39.333-12.933 78.753-25.66 118.26-38.18 39.507-12.52 79.063-24.813 118.67-36.88l.54 1.91z"/><path d="M1590.77 1790.3c-22.26 9.76-44.38 19.93-66.42 30.21-22.04 10.28-44 20.77-65.89 31.38-43.787 21.22-87.3 42.99-130.54 65.31-86.507 44.56-171.937 91.097-256.29 139.61-84.353 48.513-167.42 99.077-249.2 151.69-81.687 52.733-161.75 107.827-240.19 165.28-78.24 57.61-154.49 117.9-227.82 181.49-73.33 63.59-143.84 130.38-209.68 201.47-32.88 35.57-64.69 72.1-94.86 109.91s-58.88 76.74-85.58 117c-26.702 40.158-51.14 81.776-73.2 124.66-21.938 42.78-40.932 87.005-56.85 132.37l-.15.42-.24.56-58.93 135.66-59.2 135.54c-39.58 90.273-79.49 180.417-119.73 270.43-40.24 90.013-80.677 179.943-121.31 269.79-40.667 89.84-81.503 179.593-122.51 269.26l-3.72-12.56 95.42 64.39 95.27 64.62 47.57 32.41 47.51 32.5 47.47 32.57L-271 4569l-1.64 2.51-49-30.28-48.86-30.43-48.82-30.5-48.68-30.61-97.39-61.38-97.24-61.6-7.14-4.52 3.42-8c38.667-90.713 77.537-181.333 116.61-271.86 39.073-90.527 78.343-180.97 117.81-271.33 39.473-90.353 79.267-180.567 119.38-270.64l60.36-135 60.64-134.9-.39 1c16.93-46.325 36.977-91.45 60-135.07 11.44-21.79 23.63-43.15 36.29-64.21 12.66-21.06 25.87-41.77 39.63-62.1 55-81.33 117.66-157.06 184.68-228.3 16.787-17.787 33.83-35.32 51.13-52.6 17.3-17.28 34.853-34.28 52.66-51 35.587-33.487 71.997-66.047 109.23-97.68 74.42-63.25 151.64-123.06 230.76-180.11 79.12-57.05 160.12-111.49 242.63-163.39 82.51-51.9 166.39-101.61 251.4-149.24 85.01-47.63 171.19-93.12 258.33-136.67 43.567-21.773 87.407-42.99 131.52-63.65 22.053-10.333 44.177-20.507 66.37-30.52 22.21-10 44.46-19.86 66.91-29.35l1.17 2.73z"/></g><path fill="#232323" d="M4095.55 4128.27c0-1447.39-1847.6-2327.91-1847.6-2327.91l181.12-58.46s794.46 171.46 1666.48 566.95v1819.42z"/><path fill="#000" d="M4098.55 4128.27h-6c0-172.26-26.66-345.42-79.24-514.66-47.81-153.89-118.12-308-209-458.07-153.07-252.83-366.53-499-634.45-731.63-105.28-91.42-219.32-180.94-339-266.08-95.72-68.12-195.22-133.6-295.73-194.63-171.14-103.92-287.39-159.58-288.54-160.13l-6.81-3.25 189.06-61 .79.17c2 .43 202.25 43.95 506.46 135.22 178.66 53.61 357.7 113 532.14 176.4 218.06 79.31 429.51 165.28 628.49 255.52l1.76.8.07 1821.34zM2256 1800.93c27.13 13.34 134.18 67.18 282.23 157.07 100.63 61.1 200.25 126.66 296.09 194.85 119.8 85.25 234 174.89 339.44 266.43 268.42 233.06 482.3 479.7 635.71 733.08 91.12 150.49 161.63 305.07 209.6 459.43 38 121.767 62.652 247.305 73.52 374.4v-1675.4c-198.31-89.88-409-175.51-626.25-254.53C3292 1992.85 3113 1933.54 2934.51 1880c-294.36-88.32-491.29-131.89-505.29-135L2256 1800.93z"/><g fill="#000" opacity=".45"><path d="M2391.84 1753.06c39.66 12 79.217 24.293 118.67 36.88 39.453 12.587 78.873 25.313 118.26 38.18 78.707 25.853 157.19 52.39 235.45 79.61 156.5 54.46 312.1 111.59 466.18 172.74 154.08 61.15 306.73 126.1 456.05 198.5 9.31 4.56 18.68 9 27.95 13.67l27.86 13.87 27.73 14.13 6.93 3.53 6.9 3.6 13.8 7.2c36.773 19.253 73.19 39.21 109.25 59.87 36.06 20.66 71.5 42.423 106.32 65.29 34.76 22.92 68.79 47.12 101.34 73.41l1.26 1 .9 1.48 55 89.64 54.74 89.77 54.51 89.91 54.3 90c36.113 60.08 72.153 120.2 108.12 180.36 35.967 60.16 71.807 120.403 107.52 180.73l.57 1 .22.93 21.5 91.71 21.32 91.75 21.09 91.81c6.987 30.613 13.913 61.243 20.78 91.89l-1.94.48c-8.213-30.313-16.337-60.647-24.37-91l-24.05-91.07-23.83-91.13-23.65-91.18.79 1.89c-37.06-59.5-74.013-119.067-110.86-178.7-36.847-59.633-73.6-119.32-110.26-179.06l-54.88-89.68-54.68-89.81-54.45-89.95-54.23-90.08 2.17 2.49c-31.62-26.09-64.92-50.31-99.06-73.34s-69.18-44.84-104.75-65.78c-35.57-20.94-71.72-40.94-108.17-60.41l-13.68-7.27-6.84-3.63-6.88-3.57-27.53-14.25-27.66-14c-9.21-4.69-18.51-9.2-27.76-13.81-74.14-36.64-149.28-71.3-225-104.72s-152-65.57-228.68-96.73c-38.36-15.553-76.803-30.887-115.33-46s-77.143-30.027-115.85-44.74c-77.4-29.42-155.067-58.087-233-86-77.933-27.913-156.127-55.19-234.58-81.83-78.44-26.56-157-52.71-236-77.61l.49-1.97z"/><path d="M2284 1787.54c22.45 9.48 44.7 19.35 66.91 29.35 22.21 10 44.32 20.19 66.37 30.52 44.1 20.667 87.94 41.883 131.52 63.65 87.133 43.553 173.243 89.11 258.33 136.67 85.087 47.56 168.877 97.317 251.37 149.27 82.507 51.92 163.4 106.353 242.68 163.3 79.12 57.06 156.34 116.86 230.76 180.11 37.22 31.607 73.63 64.167 109.23 97.68 17.767 16.773 35.32 33.773 52.66 51 17.34 17.227 34.383 34.76 51.13 52.6 67 71.24 129.66 147 184.68 228.3 13.76 20.32 26.97 41.02 39.63 62.1 12.65 21.06 24.85 42.43 36.29 64.21 23.023 43.62 43.07 88.745 60 135.07l-.39-1 60.64 134.9 60.36 135c40.12 90.067 79.913 180.28 119.38 270.64 39.467 90.36 78.737 180.803 117.81 271.33 39.073 90.533 77.943 181.153 116.61 271.86l3.42 8-7.14 4.52-97.24 61.6-97.39 61.38-48.76 30.59-48.82 30.5-48.86 30.43-49 30.28-1.64-2.51 47.37-32.72 47.47-32.57 47.51-32.5 47.57-32.41 95.27-64.62 95.42-64.39-3.72 12.56c-41.047-89.66-81.883-179.413-122.51-269.26-40.627-89.847-81.063-179.777-121.31-269.79-40.24-90-80.157-180.16-119.75-270.48l-59.2-135.54-58.93-135.66-.24-.56-.15-.42c-15.917-45.365-34.912-89.59-56.85-132.37-22.06-42.884-46.498-84.502-73.2-124.66-26.7-40.22-55.227-79.22-85.58-117-30.18-37.8-62-74.34-94.86-109.91-65.84-71.08-136.37-137.88-209.68-201.47s-149.58-123.88-227.82-181.49c-78.24-57.61-158.5-112.54-240.19-165.28-81.69-52.74-164.86-103.21-249.2-151.69-84.34-48.48-169.79-95-256.29-139.61-43.267-22.253-86.78-44.023-130.54-65.31-21.887-10.62-43.85-21.08-65.89-31.38-22-10.28-44.16-20.45-66.42-30.21l1.18-2.61z"/></g><path fill="#232323" d="M3871.67 1104.25c-556.86 0-1331 214.83-1658.06 406l190.63 32.25s601.07-315.58 1467.43-408.26v-29.99z"/><path fill="#000" d="M2404.74 1545.64l-199.74-33.8 7.13-4.17c80.22-46.89 190.6-96.79 319.22-144.32 128.07-47.32 274.83-92.51 424.41-130.7 332-84.74 657.26-131.41 915.95-131.41h3V1137l-2.68.29c-360.534 39.075-715.437 119.135-1057.83 238.63-255.44 89.38-407.06 168.46-408.56 169.25l-.9.47zm-182.43-37l181.45 30.7c13-6.69 162.78-83.15 408.33-169.08 342.004-119.39 696.48-199.488 1056.59-238.75v-24.3c-257.72.36-581.24 46.92-911.46 131.22-149.39 38.13-295.94 83.26-423.82 130.51-124.49 46.06-231.81 94.25-311.09 139.75v-.05z"/><path fill="#000" d="M2235.61 1527.84l24-13.54 6-3.39 3-1.69 3-1.6 12.19-6.41 12.19-6.41c4.06-2.14 8.11-4.31 12.25-6.29l24.7-12.19c8.19-4.15 16.56-7.92 24.88-11.81 8.32-3.89 16.63-7.78 25-11.59l25.2-11.1 12.6-5.55c4.19-1.88 8.46-3.57 12.68-5.37 67.64-28.61 136.4-54.48 205.8-78.45 69.4-23.97 139.48-46 210-66.39 70.52-20.39 141.52-39.19 212.88-56.45 71.36-17.26 143.13-32.85 215.19-46.85s144.47-26.32 217.14-36.76c72.67-10.44 145.69-19 218.83-25 73.14-6 146.56-9.53 220-9.53-73.42.09-146.8 3.66-220 9.78-73.2 6.12-146.09 14.73-218.74 25.23s-145 22.94-217.06 37c-72.06 14.06-143.78 29.71-215.1 47.09-71.32 17.38-142.28 36.2-212.77 56.68-70.49 20.48-140.5 42.58-209.86 66.6-69.36 24.02-138 50-205.6 78.65-4.22 1.8-8.48 3.49-12.67 5.38l-12.59 5.56-25.17 11.12c-8.34 3.82-16.63 7.74-24.95 11.61-8.32 3.87-16.66 7.68-24.84 11.83l-24.66 12.21c-4.13 2-8.17 4.16-12.23 6.3l-12.17 6.42-12.17 6.42-3 1.6-3 1.69-6 3.39-23.94 13.55-1.01-1.74z"/><path fill="#000" d="M2345.52 1540.77l22.74-12.69 5.68-3.17c1.89-1.07 3.79-2.12 5.72-3.1l11.53-6 11.53-6c3.86-2 7.66-4.08 11.57-6l23.34-11.52c3.9-1.9 7.76-3.89 11.69-5.72l11.79-5.51 23.58-11 23.77-10.59 11.89-5.29 5.95-2.64 6-2.54c63.76-27.4 128.51-52.43 193.84-75.78 65.33-23.35 131.28-45 197.65-65.18 66.37-20.18 133.18-39 200.34-56.34 67.16-17.34 134.72-33.21 202.58-47.63 67.86-14.42 136-27.34 204.49-38.51 68.49-11.17 137.22-20.56 206.23-27.61 69.01-7.05 138.27-11.72 207.63-13-69.35 1.46-138.6 6.3-207.59 13.42-68.99 7.12-137.72 16.71-206.15 28s-136.57 24.33-204.38 38.87-135.31 30.56-202.44 48-133.86 36.37-200.17 56.68c-66.31 20.31-132.17 42.06-197.43 65.5-65.26 23.44-129.91 48.59-193.56 76.08l-6 2.55-5.94 2.64-11.87 5.3-23.73 10.62-23.53 11.06-11.76 5.53c-3.92 1.84-7.77 3.83-11.66 5.73l-23.28 11.55c-3.9 1.88-7.69 4-11.54 6l-11.5 6-11.5 6c-1.93 1-3.82 2-5.7 3.11l-5.67 3.18-22.66 12.7-1.48-2.7z"/><path fill="#232323" stroke="#000" stroke-width="4.11" d="M2543.34 1619.45c5.06 99.12-266.41 209.46-606.79 209.05-340.39.43-611.86-109.93-606.79-209.05 5-100.07 276.47-152 606.8-152.57 330.31.53 601.79 52.5 606.78 152.57z"/><path fill="#B5B5B5" stroke="#000" stroke-width="3.85" d="M2548.78 1619.47c5.06 99.12-266.4 209.46-606.78 209-340.38.43-611.84-109.93-606.78-209 5-100.07 276.46-152 606.78-152.56 330.32.52 601.79 52.5 606.78 152.56z"/><path fill="#7F7F7F" d="M2283.72 1407.23c.52-19.62 6.72-37.72 16.69-51.34 20.24 2.31 36.53 24.78 36.53 24.78-24.92 1.18-44.09 27-44.92 57.84 0 0 2 45.82 4.72 70.48-5.26-5.58-8.73-11.18-9.89-16.2-4.76-18.96-3.12-85.57-3.13-85.56z"/><path fill="#A8A8A8" d="M2296.74 1509c-2.71-24.66-4.72-70.49-4.72-70.49.82-30.8 20-56.67 44.91-57.85-12.82 3.17-21.56 19.5-25 35.36-3.44 15.86.78 82.74.78 82.74-5.25 4.54-15.97 10.24-15.97 10.24z"/><path fill="#E7E8E9" d="M2295.51 1507.37c-17-5.87-32.34-15.16-42.36-25.68-2.62-24.11-4.59-68.65-4.61-69.1.84-31.33 20.58-55.93 44.93-55.93.8 0 1.6 0 2.41.08-2 32.16-3.63 84-.37 150.63z"/><path fill="#7F7F7F" d="M2293.47 1357.81h1.19c-1.95 32-3.49 82.82-.38 147.87-16-5.78-30.44-14.6-40-24.54-2.54-23.67-4.46-66.4-4.56-68.55.41-14.7 5.13-28.47 13.31-38.78 8.18-10.31 19-16 30.46-16h-.02zm.02-2.31c-25.45 0-45.25 26-46.08 57.13 0 0 2 45.22 4.66 69.56 9.74 10.33 25.76 20.54 44.7 26.81-3.33-66.69-1.83-118.81.35-153.32-1.22-.12-2.43-.18-3.63-.18zm-683.24 51.73c-.52-19.62-6.72-37.72-16.69-51.34-20.24 2.31-36.53 24.78-36.53 24.78 24.92 1.18 44.09 27 44.92 57.84 0 0-2 45.82-4.72 70.48 5.26-5.58 8.73-11.18 9.89-16.2 4.77-18.96 3.13-85.57 3.13-85.56z"/><path fill="#A8A8A8" d="M1597.23 1509c2.71-24.66 4.72-70.49 4.72-70.49-.82-30.8-20-56.67-44.91-57.85 12.82 3.17 21.56 19.5 25 35.36 3.44 15.86-.78 82.74-.78 82.74 5.25 4.54 15.97 10.24 15.97 10.24z"/><path fill="#E7E8E9" d="M1598.47 1507.37c3.26-66.63 1.63-118.46-.37-150.63.81-.05 1.61-.08 2.41-.08 24.36 0 44.09 24.6 44.93 56 0 .37-2 44.9-4.61 69-10.02 10.55-25.37 19.84-42.36 25.71z"/><path fill="#7F7F7F" d="M1600.52 1357.81c11.45 0 22.27 5.69 30.46 16 8.19 10.31 12.9 24.09 13.31 38.78-.1 2.16-2 44.88-4.56 68.55-9.59 9.94-24 18.76-40 24.54 3.11-65.06 1.57-115.88-.38-147.87h1.19-.02zm.02-2.31c-1.2 0-2.41.06-3.63.18 2.18 34.51 3.69 86.64.35 153.32 18.95-6.27 35-16.47 44.7-26.81 2.68-24.33 4.66-69.56 4.66-69.56-.83-31.12-20.64-57.14-46.08-57.13z"/></g></svg>
