<?xml version="1.0" encoding="UTF-8"?>
<svg xmlns="http://www.w3.org/2000/svg" viewBox="0 0 1823 2191">
  <g fill="none" fill-rule="evenodd">
    <path fill="#000" fill-rule="nonzero" d="M911.5 260.09c332 0 601.08 327.22 601.08 623.69 0 0 0 430-43.21 539.74-34.63 95.35-271.19 169.13-557.88 169.13s-523.25-73.78-557.88-169.13c-43.2-109.79-43.21-539.74-43.21-539.74 0-296.47 269.11-623.69 601.08-623.69h.02zm-.02-13.46c-82 0-162.68 19.22-239.9 57.14-36.797 18.16-71.738 39.86-104.33 64.79-32.647 24.963-63.01 52.78-90.73 83.12-27.64 30.226-52.66 62.747-74.79 97.21-21.87 34.014-40.766 69.85-56.48 107.11-15.407 36.475-27.385 74.305-35.78 113-8.182 37.71-12.362 76.18-12.47 114.77 0 1.08.06 109.18 5.41 229.3 7.23 162.16 20.23 268.21 38.66 315.2 9.57 26.18 32 50.81 66.76 73.2 32.51 21 75 39.54 126.31 55.23 104.18 31.85 238.21 49.4 377.39 49.4 139.18 0 273.22-17.54 377.39-49.4 51.3-15.69 93.8-34.27 126.31-55.23 34.73-22.39 57.19-47 66.76-73.2 18.43-47 31.44-153 38.66-315.2C1526 993 1526 884.85 1526 883.77c-.108-38.59-4.288-77.06-12.47-114.77-8.395-38.695-20.373-76.525-35.78-113-15.718-37.274-34.622-73.124-56.5-107.15-22.13-34.463-47.15-66.984-74.79-97.21-27.72-30.34-58.083-58.157-90.73-83.12-32.592-24.93-67.533-46.63-104.33-64.79-77.22-37.91-157.93-57.14-239.9-57.14l-.02.04z"/>
    <path fill="#FFF" fill-rule="nonzero" d="M1076.5 381c75.08 36.86 143.65 88.89 203.83 154.65 57.65 63 105.29 137.14 137.76 214.4 32.9 78.28 50.29 160.06 50.29 236.51 0 1.61-.06 57.82-2 135.55 6.2-123.5 6.33-240.42 6.33-242.6 0-66.31-15.08-137.25-43.62-205.15-28.17-67-69.49-131.32-119.5-186-52.19-57-111.68-102.16-176.8-134.14C1063.45 320.24 991.08 303 917.7 303c-47.35.052-94.425 7.23-139.64 21.29 16.76-1.58 33.58-2.373 50.46-2.38 84.61-.03 168.04 19.87 247.98 59.09z"/>
    <path stroke="#000" stroke-width="48.07" d="M910.76 251.24s-3-122.93 80.19-167"/>
    <path fill="#000" d="M991 1c-1.11 0-2.24 0-3.35.07-45.222 1.854-80.67 39.514-79.785 84.766.884 45.25 37.775 81.498 83.035 81.584 1.11 0 2.24 0 3.35-.07 33.345-1.32 62.674-22.436 74.505-53.64 11.83-31.202 3.872-66.455-20.215-89.55C1033.086 9.275 1012.457.97 991 1z"/>
    <path fill="#E7E8E9" fill-rule="nonzero" d="M991 9.67c40.562.048 73.638 32.525 74.427 73.08.79 40.554-30.998 74.293-71.527 75.92-1.007.04-2.007.06-3 .06-40.562-.048-73.638-32.525-74.427-73.08-.79-40.554 30.998-74.293 71.527-75.92 1 0 2-.06 3-.06z"/>
  </g>
</svg>