<?xml version="1.0" encoding="UTF-8"?>
<svg xmlns="http://www.w3.org/2000/svg" viewBox="0 0 1823 2191">
  <g fill="#7F7F7F" fill-rule="nonzero">
    <path d="M541.28 1179.82c-1.57.142-3.13.382-4.67.72-27.89 6.43-51 43.86-51 76.81 0 0 1.1 52.74 4.1 72.07-12.69-2.74-21.46-8.56-23.58-15.76-5-15.58-5-78.25-5-78.25.015-32.13 16.783-67.573 40.446-87.102-2.247-9.593-1.054-20.104 4.044-29.148 6.26-11.05 17.08-17.64 29-17.64v-.05c7.057.024 13.91 2.364 19.51 6.66 11.037 8.356 16.346 22.456 14.722 36.11M1253.767 1144.2c-1.6-13.65 3.71-27.712 14.723-36.02 5.6-4.296 12.453-6.636 19.51-6.66v.05c11.95 0 22.78 6.64 29 17.64 5.09 9.04 6.285 19.546 4.043 29.135 23.64 19.537 40.382 54.955 40.397 87.065 0 0 0 62.67-5 78.25-2.12 7.2-10.89 13.02-23.58 15.76 3-19.33 4.1-72.07 4.1-72.07 0-32.95-23.11-70.38-51-76.81-1.54-.338-3.1-.578-4.67-.72"/>
  </g>
</svg>