<?xml version="1.0" encoding="UTF-8"?>
<svg xmlns="http://www.w3.org/2000/svg" viewBox="0 0 1823 2191">
  <g fill="none">
    <path fill="#A8A8A8" d="M1238.58 1299.83c-2.54-23.08-4.41-66-4.42-66 .77-28.82 18.71-53 42-54.13-12 3-20.18 18.24-23.36 33.09-3.18 14.85.73 77.42.73 77.42-4.92 4.28-14.95 9.62-14.95 9.62z"/>
    <path fill="#7F7F7F" d="M1285.96 1180.54c-1.54-.338-3.1-.578-4.67-.72-25.76-2.49-46.31 23.1-47.14 54 .01 0 1.88 42.92 4.42 66-4.92-5.22-8.17-10.47-9.25-15.16-4.46-17.77-2.93-80.09-2.93-80.09.673-25.167 11.315-47.68 27.377-60.37"/>
    <path fill="#A8A8A8" d="M584 1299.83c2.54-23.08 4.41-66 4.42-66-.77-28.82-18.71-53-42-54.13 12 3 20.18 18.24 23.36 33.09 3.18 14.85-.73 77.42-.73 77.42 4.95 4.28 14.95 9.62 14.95 9.62z"/>
    <path fill="#7F7F7F" d="M568.852 1144.24c16.035 12.696 26.656 35.188 27.328 60.33 0 0 1.53 62.32-2.93 80.09-1.08 4.69-4.33 9.94-9.25 15.16 2.54-23.08 4.41-66 4.42-66-.83-30.9-21.38-56.49-47.14-54-1.57.142-3.13.382-4.67.72"/>
  </g>
</svg>