<?xml version="1.0" encoding="UTF-8"?>
<svg xmlns="http://www.w3.org/2000/svg" viewBox="0 0 1823 2191">
  <g fill="none">
    <g stroke="#000" stroke-width="8.67">
      <path fill="#E7E8E9" d="M1037.61 2078.75c0 52.44-56.46 107.91-126.11 107.91s-126.11-55.47-126.11-107.91 56.46-82 126.11-82 126.11 29.55 126.11 82z"/>
      <path fill="#000" d="M1239.35 1955.37c58.58-59.12-73.16-103.32-327.85-103.14-254.69-.16-386.44 44-327.85 103.14 8.21 10.14 20 19.93 33.89 29.25h-.12c28.403 18.928 55.544 39.685 81.25 62.14h.09c42.93 38.29 122.85 64.46 212.74 64.46 89.89 0 169.81-26.16 212.74-64.46 25.72-22.457 52.88-43.215 81.3-62.14h-.12c13.96-9.3 25.72-19.11 33.93-29.25z"/>
      <path fill="#BD292C" d="M1239.35 1955.37c-53.91 59.06-188.27 106-327.85 105.8-139.59.21-273.93-46.71-327.85-105.8-58.57-59.12 73.16-103.32 327.85-103.14 254.69-.16 386.43 44.03 327.85 103.14z"/>
      <path fill="#000" d="M1468.59 1779.68c39.83-46.56 20.39-87.77-78.92-116.9-96.36-29.2-272.57-46.32-478.17-46.42-205.61.08-381.82 17.21-478.17 46.41-99.3 29.13-118.75 70.34-78.91 116.91 12.86 14.92 31 29.47 52.47 43.28h-.23c47.453 30.19 92.947 63.353 136.21 99.29h.07c74.76 61.28 213.68 103.19 368.57 103.17 154.89-.02 293.81-41.92 368.57-103.17h.22c43.212-35.92 88.653-69.068 136.05-99.25h-.23c21.5-13.89 39.61-28.38 52.47-43.32z"/>
      <path fill="#BD292C" d="M1468.59 1779.68c-91 93.57-320.69 167.87-557.09 167.5-236.4.36-466.11-74-557.09-167.5-39.83-46.56-20.39-87.77 78.92-116.9 96.35-29.2 272.57-46.32 478.17-46.42 205.6.08 381.82 17.21 478.17 46.41 99.33 29.13 118.75 70.33 78.92 116.91z"/>
      <path fill="#000" d="M117 1600.28c70.515 43.4 138.394 90.944 203.28 142.38h.11c120.77 92.69 344.18 156.2 591.17 156.19 246.99-.01 470.4-63.5 591.17-156.19h.11c64.886-51.436 132.765-98.98 203.28-142.38H117.13"/>
    </g>
    <path fill="#E7E8E9" d="M908.57 1796.08c-186.71 0-369.16-25.1-527.63-72.58-146.51-43.9-261.74-104.22-324.47-169.86C20.36 1515.87 2.9 1478 4.58 1441c1.86-42.09 27.75-80.46 77-114 45.84-31.28 111.82-58.35 196.1-80.48 80.65-21.17 176.93-37.55 286.16-48.69 107-10.91 224-16.55 347.71-16.77 123.76.22 240.75 5.86 347.72 16.77 109.23 11.14 205.5 27.52 286.16 48.69 84.28 22.13 150.26 49.21 196.1 80.48 49.2 33.57 75.09 71.93 77 114 1.67 37-15.79 74.86-51.9 112.64-62.74 65.64-178 126-324.5 169.86-158.47 47.47-340.94 72.57-527.66 72.57l-5.9.01z"/>
    <path fill="#000" d="M911.5 1185.38c491.35.87 895.17 88 902.59 255.83 7.51 165.9-394.76 350.54-899.77 350.54h-5.75c-504.94 0-907.18-184.66-899.67-350.54 7.42-167.8 411.24-254.95 902.59-255.83h.01zm-.01-8.67c-123.89.22-241 5.87-348.14 16.79-109.45 11.16-206 27.58-286.82 48.81-84.76 22.25-151.19 49.54-197.44 81.09-50.4 34.38-76.92 73.89-78.85 117.42-.87 19.29 3.38 39.11 12.65 58.91 8.9 19 22.5 38.15 40.44 56.91 63.24 66.17 179.15 126.91 326.36 171 76.37 22.88 159.09 40.74 245.85 53.06 93.755 13.193 188.32 19.776 283 19.7h5.75c94.702.077 189.292-6.506 283.07-19.7 86.77-12.32 169.5-30.18 245.88-53.06 147.23-44.11 263.15-104.84 326.39-171 17.94-18.77 31.54-37.92 40.44-56.91 9.27-19.8 13.53-39.62 12.65-58.92-1.93-43.52-28.45-83-78.84-117.41-46.25-31.56-112.68-58.84-197.44-81.09-80.87-21.23-177.37-37.65-286.82-48.81-107.12-10.92-224.25-16.57-348.14-16.79h.01z"/>
    <path fill="#FFF" d="M289.92 1247.32l1.53-.38c32.29-8.11 67.44-15.57 104.47-22.17h.11L913.11 1379l-139.76 41.9-483.43-173.58z"/>
    <path fill="#7F7F7F" d="M396 1225.24L911.44 1379l-138.06 41.39-481.81-173c32.62-8.19 67.53-15.58 104.44-22.16l-.01.01zm.07-1.01h-.22c-37 6.61-72.2 14.07-104.5 22.18l-3.06.77 3 1.07 481.81 173 .3.11.3-.09 138.06-41.39 3.08-.92-3.08-.92-515.48-153.72-.22-.07.01-.02z"/>
    <path fill="#FFF" d="M909.76 1379l515.5-154.55h.11c37.85 6.71 73.71 14.31 106.61 22.58l1.53.38-483.29 173.49-140.46-41.9z"/>
    <path fill="#7F7F7F" d="M1425.29 1224.94c37.7 6.69 73.32 14.21 106.57 22.58l-481.66 172.87L911.44 1379l513.85-154.06zm-.06-1l-.22.07-513.85 154.07-3.08.92 3.08.92 138.77 41.39.3.09.3-.11 481.65-172.88 3-1.07-3.06-.77c-32.9-8.27-68.78-15.87-106.64-22.59h-.23l-.02-.04z"/>
    <path fill="#FFF" d="M906.08 1470.08l144.07-51.71 643.13 191.84-3.49 2.27c-44.93 29.18-99.79 56.08-163 80l-.66.25-620.05-222.65z"/>
    <path fill="#000" d="M1050.2 1420.39l638.54 190.48c-44.34 28.8-99.24 55.83-162.68 79.76l-614.29-220.55 138.44-49.69h-.01zm-.1-4l-1.19.43-138.44 49.69-10.08 3.62 10.08 3.62 614.29 220.55 1.33.48 1.32-.5c63.39-23.92 118.37-50.88 163.42-80.14l7-4.53-8-2.38-638.53-190.52-1.21-.36.01.04z"/>
    <path fill="#FFF" d="M296.42 1692.5c-62.74-23.66-117.24-50.32-162-79.24l-3.5-2.26 642.51-192.63 144 51.71-620.35 222.67-.66-.25z"/>
    <path fill="#000" d="M773.37 1420.39l138.4 49.69L297.1 1690.7c-62.94-23.74-117.47-50.52-161.64-79.05l637.91-191.26zm.11-4l-1.21.36L134.35 1608l-8 2.39 7 4.52c44.87 29 99.5 55.71 162.37 79.42l1.32.5 1.33-.48 614.7-220.65 10.08-3.62-10.08-3.62-138.4-49.69-1.19-.43v.05z"/>
    <path fill="#FFF" stroke="#000" stroke-width="3.85" d="M1479.3 1403.2c4.73 92.75-249.29 196-567.8 195.62-318.5.4-572.5-102.82-567.8-195.62 4.67-93.64 258.7-142.27 567.8-142.76 309.1.49 563.13 49.12 567.8 142.76z"/>
  </g>
</svg>