<?xml version="1.0" encoding="UTF-8"?>
<svg xmlns="http://www.w3.org/2000/svg" viewBox="0 0 1823 2191">
    <path fill="#7F7F7F" d="M452.8 1433.22s2.68 61.24 6.31 94.2c0 0 14.33-7.62 21.39-13.68 0 0-5.58-89.37-1-110.57 4.58-21.2 16.23-43 33.36-47.26h.1c-33.39 1.5-59.06 36.09-60.16 77.31z"/>
    <path fill="#000" d="M527.3 1357.45c-2.2-.473-4.428-.807-6.67-1-36.79-3.54-66.15 33.01-67.33 77.14.01-.01 2.69 61.2 6.31 94.2-7.04-7.47-11.67-14.95-13.22-21.66-6.37-25.38-4.19-114.38-4.19-114.38.96-35.936 16.135-68.07 39.045-86.2"/>
    <path fill="#7F7F7F" d="M1366.47 1527.77c3.62-33 6.3-94.21 6.31-94.2-1.1-41.16-26.72-75.73-60-77.31 17.13 4.24 28.82 26.06 33.36 47.26 4.54 21.2-1 110.57-1 110.57 7.01 6.06 21.33 13.68 21.33 13.68z"/>
    <path fill="#000" d="M1344.817 1305.543c22.915 18.13 38.094 50.267 39.053 86.207 0 0 2.18 89-4.19 114.38-1.55 6.71-6.18 14.19-13.22 21.66 3.62-33 6.3-94.21 6.31-94.2-1.18-44.13-30.54-80.68-67.33-77.14-2.242.193-4.47.527-6.67 1"/>
</svg>