<?xml version="1.0" encoding="UTF-8"?>
<svg xmlns="http://www.w3.org/2000/svg" viewBox="0 0 1823 2191">
  <g fill="none" fill-rule="evenodd">
    <g fill-rule="nonzero">
      <path fill="#000" d="M1305.44 1356.45c-2.242.193-4.47.527-6.67 1-39.83 9.18-72.79 62.64-72.86 109.71 0 0 1.58 75.33 5.85 102.94v.06c-18.11-3.91-30.63-12.23-33.66-22.51-7.17-22.26-7.21-111.76-7.21-111.76.082-45.992 24.067-96.643 57.89-124.538-3.2-13.693-1.495-28.694 5.78-41.602 8.89-15.77 24.37-25.19 41.37-25.19h.01c10.078.033 19.866 3.374 27.86 9.51 15.745 11.874 23.325 31.986 21.017 51.473"/>
      <path fill="#FFF" d="M1296 1261.9c6.307.038 12.427 2.146 17.42 6 14.67 11.06 18.89 33.63 9.44 50.41-6 10.61-16 16.36-26.25 16.36-6.307-.04-12.427-2.146-17.42-6-14.67-11.06-18.89-33.63-9.44-50.4 6-10.61 16-16.36 26.25-16.36v-.01z"/>
      <path fill="#C71F1B" d="M1296 1269.59c4.944.037 9.74 1.695 13.65 4.72 5.703 4.492 9.535 10.943 10.75 18.1 1.49 7.402.313 15.092-3.32 21.71-4.54 8.05-12.23 12.86-20.6 12.86-4.943-.034-9.738-1.69-13.65-4.71-5.703-4.493-9.534-10.943-10.75-18.1-1.49-7.402-.313-15.092 3.32-21.71 4.54-8.05 12.24-12.86 20.6-12.86v-.01z"/>
    </g>
    <path fill="#000" fill-rule="nonzero" d="M481.245 1305.55c-2.316-19.494 5.264-39.614 21.015-51.5 7.994-6.136 17.782-9.477 27.86-9.51 17.02-.01 32.48 9.4 41.37 25.18 7.277 12.91 8.982 27.92 5.777 41.616 33.83 27.892 57.816 78.553 57.913 124.554 0 0-.04 89.5-7.21 111.76-3.03 10.28-15.55 18.6-33.66 22.51 4.27-27.67 5.85-103 5.85-103-.07-47.07-33.03-100.53-72.86-109.71-2.2-.473-4.428-.807-6.67-1"/>
    <path fill="#FFF" fill-rule="nonzero" d="M530.06 1261.9c-6.615.033-13.037 2.236-18.28 6.27-14.52 11-18.78 33.26-9.5 49.73 5.92 10.5 16.12 16.78 27.3 16.78 6.615-.033 13.037-2.236 18.28-6.27 14.51-11 18.78-33.26 9.5-49.73-5.92-10.5-16.12-16.78-27.3-16.78z"/>
    <path fill="#C71F1B" d="M530.06 1269.59c8.36 0 16.06 4.81 20.6 12.86 3.633 6.618 4.81 14.308 3.32 21.71-1.216 7.157-5.047 13.607-10.75 18.1-3.91 3.025-8.706 4.683-13.65 4.72-8.36 0-16.06-4.81-20.6-12.86-3.633-6.618-4.81-14.308-3.32-21.71 1.215-7.157 5.047-13.608 10.75-18.1 3.91-3.025 8.706-4.683 13.65-4.72z"/>
  </g>
</svg>