<?xml version="1.0" encoding="UTF-8"?>
<svg xmlns="http://www.w3.org/2000/svg" viewBox="0 0 42 42">
    <g fill="#000">
        <path d="M23.397 13.333c-.17-.02-.348-.03-.52-.03-2.1 0-3.878 1.57-4.137 3.655-.286 2.283 1.34 4.375 3.624 4.66.174.02.35.03.52.03 2.1 0 3.88-1.57 4.14-3.658.137-1.103-.164-2.194-.85-3.076-.686-.882-1.672-1.443-2.777-1.58z" />
        <path d="M22.54 21.438c2.29.286 4.376-1.336 4.662-3.624.285-2.288-1.337-4.372-3.626-4.658-2.288-.286-4.373 1.338-4.658 3.624-.285 2.287 1.335 4.374 3.623 4.658zm-.595-15.072c-.145-.888-.983-1.49-1.872-1.346-.888.146-1.49.982-1.344 1.87.09.583.48 1.042.99 1.248.11.938.26 2.152.34 2.75l1.52-.213c-.08-.575-.23-1.772-.34-2.704.5-.34.79-.96.69-1.6h.01zM14.1 28.026c.34.53.68 1.047 1.024 1.548 1.236-.687 2.775-1.283 4.78-1.03 1.3.162 3.11.91 4.448 2.15.464-.404.928-.83 1.393-1.266-1.316-1.24-3.193-2.404-5.592-2.705-2.422-.302-4.45.394-6.052 1.303z" />
        <path d="M16.016 30.467c.398.556.78 1.078 1.138 1.564.66-.5 1.523-.6 2.328-.5.798.1 1.823.52 2.19 1.07.473-.39.98-.81 1.507-1.26-.78-.66-1.87-1.44-3.47-1.64-1.58-.19-2.77.32-3.7.79v-.02zm4.474 2.955c-.017-.055-.037-.107-.06-.16-.003 0-.003 0-.004-.002v-.002c-.17-.394-.542-.697-1.007-.752-.45-.057-.86.12-1.13.428-.04.045-.08.095-.11.147-.03.06-.06.11-.09.17-.05.11-.08.21-.1.33-.03.24.01.47.11.67.08.17.2.32.34.44.18.14.4.25.642.27.137.02.27.01.396-.01.4-.07.735-.33.905-.69.05-.11.09-.22.11-.35.015-.16 0-.31-.038-.46l.025-.02zm19.44-15.9c-.25-1.01-2.62-1.37-6.29-.657-.854.165-1.622.4-2.296.663-.984-4.182-4.473-7.52-8.98-8.083-.44-.056-.882-.082-1.318-.082-5.255 0-9.823 3.924-10.49 9.27-.015.113-.02.23-.027.345-.02.34-.01.694.03 1.062-.74.034-1.56.134-2.43.343-3.55.847-5.52 2.127-5.33 3.127.18 1 3.02 1.834 5.46 1.12.96-.283 2.08-.86 3.1-1.48.06.168.13.335.19.502.01.02.02.047.03.068.22.54.475 1.078.746 1.617.3.592.623 1.18.963 1.758 1.56-.9 3.453-1.517 5.622-1.517.47 0 .95.028 1.45.093 2.76.35 4.91 1.57 6.47 3.07.5-.51.98-1.02 1.44-1.55.54-.63 1.05-1.28 1.5-1.92.02-.03.04-.05.05-.08.14-.21.28-.42.41-.63.13-.22.26-.44.38-.67.48-.91.82-1.79.92-2.61.02-.16.03-.32.04-.48 1.27.17 2.65.25 3.72.1 2.564-.36 4.86-2.33 4.61-3.342l.02-.027zm-11.377.66c-.36 2.888-2.83 5.008-5.667 5.008-.235 0-.473-.013-.714-.045-3.126-.39-5.35-3.25-4.96-6.377.36-2.887 2.827-5.006 5.665-5.007.235 0 .473.02.712.05 3.12.39 5.35 3.25 4.96 6.38z" />
    </g>
</svg>
