<?xml version="1.0" encoding="UTF-8"?>
<svg width="218px" height="158px" viewBox="0 0 218 158" version="1.1" xmlns="http://www.w3.org/2000/svg" xmlns:xlink="http://www.w3.org/1999/xlink">
    <!-- Generator: Sketch 42 (36781) - http://www.bohemiancoding.com/sketch -->
    <title>Topbanner</title>
    <desc>Created with Sketch.</desc>
    <defs></defs>
    <g id="Page-1" stroke="none" stroke-width="1" fill="none" fill-rule="evenodd">
        <g id="icon-in" fill-rule="nonzero" fill="#FFFFFF">
            <g id="Topbanner">
                <g>
                    <path d="M211.7,96.22 C206.88,92.93 201.01,91.22 195.39,89.91 C196.48,76.16 198.22,60.91 192.39,47.96 C186.08,34 173,22.45 157.46,20.56 C157.507191,19.7151074 157.624258,18.8755727 157.81,18.05 L158.68,18.05 C166.42,18.05 170.4,7.86 164.24,2.71 C162.738964,1.42251045 160.827556,0.713267891 158.85,0.71 C153.4,0.71 148.32,6.04 150.41,12.16 C149.238871,14.7952262 148.603221,17.6369523 148.54,20.52 C133.15,22.39 120.08,33.84 113.74,47.64 C107.74,60.64 109.49,76.02 110.59,89.88 C103.66,91.5 93,94.09 89.59,101.22 C85.59,109.46 96.06,116.22 102.15,119.38 L102.15,119.38 C105.25,121.473333 108.25,123.683333 111.15,126.01 L111.15,126.01 C111.53,126.3 111.94,126.59 112.36,126.88 C113.315859,128.618012 114.712737,130.073525 116.41,131.1 L116.36,131.1 C120.011019,133.405879 123.514502,135.937471 126.85,138.68 L126.85,138.68 C127.543694,139.238486 128.271796,139.752833 129.03,140.22 C129.200753,140.471157 129.394957,140.705541 129.61,140.92 C130.114249,141.516587 130.688365,142.050414 131.32,142.51 L131.27,142.51 C135.5,145.32 138.98,149.1 143.92,150.67 C144.92,155.03 148.92,157.21 152.97,157.21 C157.02,157.21 161.06,155.03 161.97,150.67 C166.9,149.1 170.39,145.31 174.62,142.51 L174.57,142.51 C175.197942,142.049565 175.76865,141.515785 176.27,140.92 C176.485177,140.705663 176.679393,140.471266 176.85,140.22 C177.608132,139.752723 178.336226,139.238381 179.03,138.68 L179.03,138.68 C182.356445,135.930273 185.857069,133.398333 189.51,131.1 L189.46,131.1 C191.157858,130.074269 192.554909,128.618576 193.51,126.88 C193.93,126.59 194.34,126.3 194.72,126.01 L194.72,126.01 C197.64,123.676667 200.64,121.466667 203.72,119.38 L203.72,119.38 C208.41,116.97 213.93,113.59 216.22,108.58 C218.51,103.57 215.91,99.1 211.7,96.22 Z M124.28,52.52 C129.4,41.37 139.47,33.35 149.94,32.07 L152.99,31.7 L156.05,32.07 C166.6,33.36 176.71,41.48 181.8,52.74 C186.02,62.08 185.02,74.35 184.04,86.21 C183.966667,87.1433333 183.89,88.07 183.81,88.99 L183.81,89.25 C183.24883,90.109942 182.927747,91.1042653 182.88,92.13 C181.6,94.25 171.3,99.23 153,99.23 C134.7,99.23 124.4,94.23 123.12,92.13 C123.072253,91.1042653 122.75117,90.109942 122.19,89.25 L122.19,88.99 C122.123333,88.1166667 122.053333,87.24 121.98,86.36 C121,74.36 120,61.94 124.28,52.52 L124.28,52.52 Z M198.54,109.1 L196.44,110.18 L195.96,110.76 C193.17,112.69 190.47,114.68 187.96,116.71 L187.81,116.83 L187.05,117.38 L184.38,119.22 L183.46,121.22 L182.96,121.58 L182.51,121.9 C180.09,123.47 177.84,125.03 175.72,126.62 L175.06,127.08 L175.06,127.08 L174.97,127.16 L155.75,140.53 L153.07,141.39 L150.43,140.55 L131.15,127.15 L131.08,127.09 L131.08,127.09 L130.32,126.56 C128.19,124.97 125.97,123.42 123.61,121.9 L123.16,121.59 L122.66,121.23 L121.74,119.23 L119,117.37 L118.24,116.82 L118.06,116.68 C115.49,114.68 112.84,112.68 110.17,110.84 L109.7,110.24 L108,109.4 L107.74,109.22 L107.19,108.98 C105.119577,107.94682 103.1793,106.671205 101.41,105.18 C102.184193,104.714749 102.993283,104.310204 103.83,103.97 C106.882301,102.803765 110.022101,101.880885 113.22,101.21 L115.28,100.73 C122.28,107.62 138.07,110.84 152.98,110.84 C167.89,110.84 183.64,107.63 190.68,100.73 L192.74,101.21 C196.74,102.14 201.18,103.36 204.46,105.36 C202.639159,106.833111 200.652339,108.088298 198.54,109.1 L198.54,109.1 Z" id="Shape"></path>
                    <path d="M39.63,43.17 C38.8234542,43.1325586 38.0384443,43.436588 37.4675161,44.0075161 C36.896588,44.5784443 36.5925586,45.3634542 36.63,46.17 L36.63,67.07 L3.8,67.07 C2.14314575,67.07 0.8,68.4131458 0.8,70.07 L0.8,88 C0.8,89.6568542 2.14314575,91 3.8,91 L36.65,91 L36.65,111.9 C36.65,113.556854 37.9931458,114.9 39.65,114.9 C40.4520258,114.929568 41.2304429,114.625442 41.8,114.06 L74.65,81.21 C75.7693751,79.999056 75.7693751,78.130944 74.65,76.92 L41.87,44.1 C41.25756,43.533682 40.4634529,43.2039858 39.63,43.17 L39.63,43.17 Z" id="Shape"></path>
                </g>
            </g>
        </g>
    </g>
</svg>