<?xml version="1.0" encoding="UTF-8"?>
<svg width="217px" height="158px" viewBox="0 0 217 158" version="1.1" xmlns="http://www.w3.org/2000/svg" xmlns:xlink="http://www.w3.org/1999/xlink">
    <!-- Generator: Sketch 42 (36781) - http://www.bohemiancoding.com/sketch -->
    <title>Topbanner</title>
    <desc>Created with Sketch.</desc>
    <defs></defs>
    <g id="Page-1" stroke="none" stroke-width="1" fill="none" fill-rule="evenodd">
        <g id="icon-out" fill-rule="nonzero" fill="#FFFFFF">
            <g id="Topbanner">
                <g>
                    <path d="M123.82,96.22 C119,92.93 113.13,91.22 107.51,89.91 C108.6,76.16 110.34,60.91 104.51,47.96 C98.22,34.03 85.09,22.45 69.6,20.55 C69.6471912,19.7051074 69.7642578,18.8655727 69.95,18.04 L70.82,18.04 C78.56,18.04 82.54,7.85 76.38,2.7 C74.8789644,1.41251045 72.9675557,0.703267891 70.99,0.7 C65.54,0.7 60.46,6.03 62.55,12.15 C61.3788708,14.7852262 60.7432215,17.6269523 60.68,20.51 C45.29,22.38 32.22,33.83 25.88,47.63 C19.88,60.63 21.63,76.01 22.73,89.87 C15.8,91.49 5.14,94.08 1.73,101.21 C-2.27,109.45 8.2,116.21 14.29,119.37 L14.29,119.37 C17.39,121.463333 20.39,123.673333 23.29,126 L23.29,126 C23.67,126.29 24.08,126.58 24.5,126.87 C25.4558587,128.608012 26.8527369,130.063525 28.55,131.09 L28.5,131.09 C32.1558302,133.411673 35.6626922,135.959993 39,138.72 L39,138.72 C39.6936944,139.278486 40.4217956,139.792833 41.18,140.26 C41.3507529,140.511157 41.5449569,140.745541 41.76,140.96 C42.2642489,141.556587 42.8383649,142.090414 43.47,142.55 L43.42,142.55 C47.65,145.36 51.13,149.14 56.07,150.71 C57.07,155.07 61.07,157.25 65.12,157.25 C69.17,157.25 73.21,155.07 74.12,150.71 C79.05,149.14 82.54,145.35 86.77,142.55 L86.72,142.55 C87.3479421,142.089565 87.9186499,141.555785 88.42,140.96 C88.6351775,140.745663 88.8293926,140.511266 89,140.26 C89.7581319,139.792723 90.4862264,139.278381 91.18,138.72 L91.18,138.72 C94.5064451,135.970273 98.0070693,133.438333 101.66,131.14 L101.61,131.14 C103.307858,130.114269 104.704909,128.658576 105.66,126.92 C106.08,126.63 106.49,126.34 106.87,126.05 L106.87,126.05 C109.79,123.716667 112.79,121.506667 115.87,119.42 L115.87,119.42 C120.56,117.01 126.08,113.63 128.37,108.62 C130.66,103.61 128,99.1 123.82,96.22 Z M36.4,52.52 C41.52,41.37 51.59,33.35 62.06,32.07 L65.11,31.7 L68.17,32.07 C78.72,33.36 88.83,41.48 93.92,52.74 C98.14,62.08 97.14,74.35 96.16,86.21 C96.0866667,87.1433333 96.01,88.07 95.93,88.99 L95.93,89.25 C95.3688304,90.109942 95.0477469,91.1042653 95,92.13 C93.72,94.25 83.42,99.23 65.12,99.23 C46.82,99.23 36.52,94.23 35.24,92.13 C35.1922531,91.1042653 34.8711696,90.109942 34.31,89.25 L34.31,88.99 C34.2433333,88.1166667 34.1733333,87.24 34.1,86.36 C33.09,74.36 32.08,61.94 36.4,52.52 L36.4,52.52 Z M110.66,109.1 L108.56,110.18 L108.08,110.76 C105.29,112.69 102.59,114.68 100.08,116.71 L99.93,116.83 L99.17,117.38 L96.5,119.22 L95.58,121.22 L95.08,121.58 L94.63,121.9 C92.21,123.47 89.96,125.03 87.84,126.62 L87.18,127.08 L87.18,127.08 L87.09,127.16 L67.8,140.57 L65.12,141.43 L62.48,140.59 L43.2,127.19 L43.13,127.13 L43.13,127.13 L42.37,126.6 C40.24,125.01 38.02,123.46 35.66,121.94 L35.21,121.63 L34.71,121.27 L33.79,119.27 L31.12,117.43 L30.36,116.88 L30.18,116.74 C27.61,114.74 24.96,112.74 22.29,110.9 L21.82,110.3 L20.18,109.45 L19.92,109.27 L19.37,109.03 C17.299577,107.99682 15.3592996,106.721205 13.59,105.23 C14.360347,104.758348 15.1660936,104.347117 16,104 C19.0523014,102.833765 22.1921006,101.910885 25.39,101.24 L27.45,100.76 C34.45,107.65 50.24,110.87 65.15,110.87 C80.06,110.87 95.81,107.66 102.85,100.76 L104.91,101.24 C108.91,102.17 113.35,103.39 116.63,105.39 C114.79511,106.855282 112.794796,108.100444 110.67,109.1 L110.66,109.1 Z" id="Shape"></path>
                    <path d="M180.52,43.17 C179.713454,43.1325586 178.928444,43.436588 178.357516,44.0075161 C177.786588,44.5784443 177.482559,45.3634542 177.52,46.17 L177.52,67.07 L144.69,67.07 C143.033146,67.07 141.69,68.4131458 141.69,70.07 L141.69,88 C141.69,89.6568542 143.033146,91 144.69,91 L177.54,91 L177.54,111.9 C177.54,113.556854 178.883146,114.9 180.54,114.9 C181.342026,114.929568 182.120443,114.625442 182.69,114.06 L215.54,81.21 C216.659375,79.999056 216.659375,78.130944 215.54,76.92 L182.76,44.1 C182.14756,43.533682 181.353453,43.2039858 180.52,43.17 Z" id="Shape"></path>
                </g>
            </g>
        </g>
    </g>
</svg>