<?xml version="1.0" encoding="UTF-8"?>
<svg xmlns="http://www.w3.org/2000/svg" viewBox="0 0 343.69 422.26">
    <path fill="none" stroke="#fff" stroke-miterlimit="10" d="M274.03 77.82c-9.85 7.74-16.81 20.27-18.95 36.47-4.9 37.19 17.41 79.59 49.85 94.68 13.73 6.39 27.06 6.86 38.26 2.46a169.65 169.65 0 0 0-69.16-133.61z" />
    <path fill="#fff" d="M301.98 231.37c-39.86-18.55-68.33-68.23-67.31-114.7a104.47 104.47 0 0 1 .87-11.46c2.21-16.78 8.32-30.6 17.11-40.78a169.64 169.64 0 0 0-226 65.24c-21.87 37.87-22 92.67-14.42 144.76a169.62 169.62 0 0 1 190.16 109.89c48.85-19.41 96.16-47 118.1-85a169.14 169.14 0 0 0 21.16-61.59c-12.23 2-25.83.08-39.67-6.36z" />
    <path fill="#d0d0d0" d="M255.08 114.29c-4.9 37.19 17.41 79.59 49.85 94.68 13.73 6.39 27.06 6.86 38.26 2.46A169.66 169.66 0 0 0 274.05 77.8c-9.86 7.74-16.83 20.28-18.97 36.49z" />
    <g fill="#fff">
        <ellipse cx="889.32" cy="669.52" rx="19.73" ry="19.74" transform="rotate(-41.78 104.766 1675.233)" />
        <path d="M95.3 341.7a114.19 114.19 0 0 0-80.7-26c-.6-9.82-1-19.94-1.13-30.22a150 150 0 0 1 149.61 110.94l-29 7A114.5 114.5 0 0 0 95.3 341.7z" />
        <path d="M54.21 380c-11.36-13.36-27.12-20.19-41.64-19.57.46-9.44 1.12-19.73 2.06-30.59a89 89 0 0 1 61.42 31.57 90.14 90.14 0 0 1 21.14 48.43l-29.53 2.94A55.4 55.4 0 0 0 54.21 380z" />
    </g>
    <path fill="#d0d0d0" d="M116.88 19.67a26.25 26.25 0 1 0-3.37 20.82c15.51 7.79 26.05 23.36 26.2 23.58l8.5-5.63 8.52-5.61c-.84-1.26-15.99-23.83-39.85-33.16zM213.29 261s10.86 37.6-3.63 86.15-33.74 74.77-47.46 71.42-14.15-63.8-11.22-76.43c1.53-6.53 10.75-43.95 24.57-63.54 0 0 30.5-19.08 32.13-19.65 3.39-1.26 4.37-3.34 5.61 2.05z" />
</svg>
