<svg id="Layer_1" data-name="Layer 1" xmlns="http://www.w3.org/2000/svg" xmlns:xlink="http://www.w3.org/1999/xlink" width="504.32" height="548.02" viewBox="0 0 504.32 548.02">
  <defs>
    <clipPath id="clip-path" transform="translate(-708.97 -267)">
      <path d="M809.05,594.45c-7.63-52.08-7.45-106.88,14.42-144.76a169.65,169.65,0,0,1,293.84,169.65c-21.95,38-69.26,65.59-118.1,85A169.62,169.62,0,0,0,809.05,594.45Z" style="fill: #fff"/>
    </clipPath>
    <clipPath id="clip-path-2" transform="translate(-708.97 -267)">
      <path d="M721.17,667.19c-7.63-52.08-7.45-106.88,14.42-144.76a169.65,169.65,0,0,1,293.84,169.65c-21.95,38-69.26,65.59-118.1,85A169.62,169.62,0,0,0,721.17,667.19Z" style="fill: #fff"/>
    </clipPath>
  </defs>
  <title>bee</title>
  <g>
    <g style="opacity: 0.30000000000000004">
      <g>
        <path d="M809.05,594.45c-7.63-52.08-7.45-106.88,14.42-144.76a169.65,169.65,0,0,1,293.84,169.65c-21.95,38-69.26,65.59-118.1,85A169.62,169.62,0,0,0,809.05,594.45Z" transform="translate(-708.97 -267)" style="fill: #fff"/>
        <ellipse cx="816.59" cy="722.55" rx="19.73" ry="19.74" transform="translate(-982.73 460.82) rotate(-41.78)" style="fill: #fff"/>
        <path d="M892.15,661.74a114.19,114.19,0,0,0-80.7-26c-.6-9.82-1-19.94-1.13-30.22A150,150,0,0,1,959.94,716.45l-29,7A114.5,114.5,0,0,0,892.15,661.74Z" transform="translate(-708.97 -267)" style="fill: #fff"/>
        <path d="M851.06,700c-11.36-13.36-27.12-20.19-41.64-19.57.46-9.44,1.12-19.73,2.06-30.59a89,89,0,0,1,61.42,31.57A90.14,90.14,0,0,1,894,729.86l-29.53,2.94A55.4,55.4,0,0,0,851.06,700Z" transform="translate(-708.97 -267)" style="fill: #fff"/>
      </g>
      <g>
        <path d="M809.05,594.45c-7.63-52.08-7.45-106.88,14.42-144.76a169.65,169.65,0,0,1,293.84,169.65c-21.95,38-69.26,65.59-118.1,85A169.62,169.62,0,0,0,809.05,594.45Z" transform="translate(-708.97 -267)" style="fill: #fff"/>
        <g style="clip-path: url(#clip-path)">
          <path d="M1188.93,498.11a104.52,104.52,0,0,0,.88-11.46c1-46.45-27.45-96.12-67.31-114.69-43.16-20.08-83.58,3.79-90.11,53.28a104.4,104.4,0,0,0-.87,11.46c-1,46.47,27.45,96.15,67.31,114.7C1142,571.5,1182.4,547.59,1188.93,498.11Z" transform="translate(-708.97 -267)" style="fill: #c71f1b"/>
          <path d="M1169.39,489c4.91-37.2-17.42-79.55-49.84-94.65s-62.7,2.77-67.61,40,17.41,79.59,49.85,94.68S1164.48,526.22,1169.39,489Z" transform="translate(-708.97 -267)" style="fill: #d0d0d0"/>
        </g>
      </g>
      <path d="M945.06,378.48s-23.82-36.16-56.74-32.2" transform="translate(-708.97 -267)" style="fill: none;stroke: #fff;stroke-miterlimit: 10;stroke-width: 20.3924480298227px"/>
      <circle cx="888.32" cy="346.28" r="26.24" transform="translate(-755.88 264.68) rotate(-32.51)" style="fill: #d0d0d0"/>
      <path d="M1010.14,581s10.86,37.6-3.63,86.15S972.76,741.91,959,738.57s-14.15-63.8-11.22-76.43c1.53-6.53,10.75-43.95,24.57-63.54,0,0,30.5-19.08,32.13-19.65C1007.92,577.73,1008.9,575.65,1010.14,581Z" transform="translate(-708.97 -267)" style="fill: #d0d0d0"/>
    </g>
    <g style="opacity: 0.1">
      <g>
        <path d="M721.17,667.19c-7.63-52.08-7.45-106.88,14.42-144.76a169.65,169.65,0,0,1,293.84,169.65c-21.95,38-69.26,65.59-118.1,85A169.62,169.62,0,0,0,721.17,667.19Z" transform="translate(-708.97 -267)" style="fill: #fff"/>
        <ellipse cx="728.71" cy="795.28" rx="19.73" ry="19.74" transform="translate(-1053.54 420.76) rotate(-41.78)" style="fill: #fff"/>
        <path d="M804.27,734.47a114.19,114.19,0,0,0-80.7-26c-.6-9.82-1-19.94-1.13-30.22A150,150,0,0,1,872.05,789.18l-29,7A114.5,114.5,0,0,0,804.27,734.47Z" transform="translate(-708.97 -267)" style="fill: #fff"/>
        <path d="M763.18,772.75c-11.36-13.36-27.12-20.19-41.64-19.57.46-9.44,1.12-19.73,2.06-30.59A89,89,0,0,1,785,754.16a90.14,90.14,0,0,1,21.14,48.43l-29.53,2.94A55.4,55.4,0,0,0,763.18,772.75Z" transform="translate(-708.97 -267)" style="fill: #fff"/>
      </g>
      <g>
        <path d="M721.17,667.19c-7.63-52.08-7.45-106.88,14.42-144.76a169.65,169.65,0,0,1,293.84,169.65c-21.95,38-69.26,65.59-118.1,85A169.62,169.62,0,0,0,721.17,667.19Z" transform="translate(-708.97 -267)" style="fill: #fff"/>
        <g style="clip-path: url(#clip-path-2)">
          <path d="M1101,570.84a104.52,104.52,0,0,0,.88-11.46c1-46.45-27.45-96.12-67.31-114.69C991.45,424.61,951,448.48,944.51,498a104.4,104.4,0,0,0-.87,11.46c-1,46.47,27.45,96.15,67.31,114.7C1054.1,644.23,1094.52,620.32,1101,570.84Z" transform="translate(-708.97 -267)" style="fill: #c71f1b"/>
          <path d="M1081.5,561.75c4.91-37.2-17.42-79.55-49.84-94.65s-62.7,2.77-67.61,40,17.41,79.59,49.85,94.68S1076.6,599,1081.5,561.75Z" transform="translate(-708.97 -267)" style="fill: #d0d0d0"/>
        </g>
      </g>
      <path d="M857.18,451.21S833.36,415,800.43,419" transform="translate(-708.97 -267)" style="fill: none;stroke: #fff;stroke-miterlimit: 10;stroke-width: 20.3924480298227px"/>
      <circle cx="800.43" cy="419.01" r="26.24" transform="translate(-808.74 228.84) rotate(-32.51)" style="fill: #d0d0d0"/>
      <path d="M922.26,653.72s10.86,37.6-3.63,86.15-33.74,74.77-47.46,71.42S857,747.5,859.94,734.86c1.53-6.53,10.75-43.95,24.57-63.54,0,0,30.5-19.08,32.13-19.65C920,650.46,921,648.38,922.26,653.72Z" transform="translate(-708.97 -267)" style="fill: #d0d0d0"/>
    </g>
    <path d="M1212.76,485.15c0,.87,0,1.75-.08,2.62C1212.71,486.9,1212.74,486,1212.76,485.15Z" transform="translate(-708.97 -267)" style="fill: none;stroke: #fff;stroke-miterlimit: 10"/>
    <path d="M1132.48,337.29q1.73,1.07,3.43,2.18Q1134.21,338.36,1132.48,337.29Z" transform="translate(-708.97 -267)" style="fill: none;stroke: #fff;stroke-miterlimit: 10"/>
    <path d="M1212.64,488.67q-.06,1.38-.14,2.75Q1212.59,490,1212.64,488.67Z" transform="translate(-708.97 -267)" style="fill: none;stroke: #fff;stroke-miterlimit: 10"/>
    <path d="M1122.27,331.44l2.65,1.42C1124,332.38,1123.15,331.91,1122.27,331.44Z" transform="translate(-708.97 -267)" style="fill: none;stroke: #fff;stroke-miterlimit: 10"/>
    <path d="M1212.48,491.9q-.39,6.41-1.27,12.82Q1212.09,498.32,1212.48,491.9Z" transform="translate(-708.97 -267)" style="fill: none;stroke: #fff;stroke-miterlimit: 10"/>
    <path d="M1128,334.58q2,1.16,4,2.36Q1130,335.74,1128,334.58Z" transform="translate(-708.97 -267)" style="fill: none;stroke: #fff;stroke-miterlimit: 10"/>
    <path d="M1124.66,381.29c-4.9,37.19,17.41,79.59,49.85,94.68,13.73,6.39,27.06,6.86,38.26,2.46a169.59,169.59,0,0,0-76.59-138.79q3.81,2.5,7.45,5.17C1133.77,352.54,1126.8,365.08,1124.66,381.29Z" transform="translate(-708.97 -267)" style="fill: none;stroke: #fff;stroke-miterlimit: 10"/>
    <path d="M1212.77,484.33c0-2,0-3.93,0-5.89C1212.8,480.4,1212.8,482.36,1212.77,484.33Z" transform="translate(-708.97 -267)" style="fill: none;stroke: #fff;stroke-miterlimit: 10"/>
    <path d="M1122.24,331.43h0l0,0Z" transform="translate(-708.97 -267)" style="fill: #c71f1b"/>
    <path d="M1131.93,336.94l.55.35Z" transform="translate(-708.97 -267)" style="fill: #c71f1b"/>
    <polygon points="502.24 237.72 502.24 237.73 502.24 237.73 502.24 237.72" style="fill: #c71f1b"/>
    <path d="M1212.68,487.77c0,.3,0,.6,0,.89C1212.66,488.37,1212.67,488.07,1212.68,487.77Z" transform="translate(-708.97 -267)" style="fill: #c71f1b"/>
    <path d="M1212.51,491.42c0,.16,0,.32,0,.48C1212.49,491.74,1212.5,491.58,1212.51,491.42Z" transform="translate(-708.97 -267)" style="fill: #c71f1b"/>
    <path d="M1128,334.58h0c-1-.58-2-1.15-3-1.7,1,.56,2,1.12,3,1.7Z" transform="translate(-708.97 -267)" style="fill: #c71f1b"/>
    <path d="M1135.91,339.47l.26.17Z" transform="translate(-708.97 -267)" style="fill: #c71f1b"/>
    <path d="M1212.77,484.33c0,.27,0,.55,0,.82C1212.76,484.88,1212.76,484.6,1212.77,484.33Z" transform="translate(-708.97 -267)" style="fill: #c71f1b"/>
    <polygon points="503.8 211.43 503.8 211.43 503.8 211.44 503.8 211.43" style="fill: #c71f1b"/>
    <g>
      <path d="M1171.56,498.37c-39.86-18.55-68.33-68.23-67.31-114.7a104.47,104.47,0,0,1,.87-11.46c2.21-16.78,8.32-30.6,17.11-40.78a169.64,169.64,0,0,0-226,65.24c-21.87,37.87-22,92.67-14.42,144.76a169.62,169.62,0,0,1,190.16,109.89c48.85-19.41,96.16-47,118.1-85a169.14,169.14,0,0,0,21.16-61.59C1199,506.73,1185.4,504.81,1171.56,498.37Z" transform="translate(-708.97 -267)" style="fill: #fff"/>
      <path d="M1124.66,381.29c-4.9,37.19,17.41,79.59,49.85,94.68,13.73,6.39,27.06,6.86,38.26,2.46a169.66,169.66,0,0,0-69.14-133.63C1133.77,352.54,1126.8,365.08,1124.66,381.29Z" transform="translate(-708.97 -267)" style="fill: #d0d0d0"/>
      <g>
        <g>
          <ellipse cx="889.32" cy="669.52" rx="19.73" ry="19.74" transform="translate(-928.9 495.8) rotate(-41.78)" style="fill: #fff"/>
          <path d="M964.88,608.7a114.19,114.19,0,0,0-80.7-26c-.6-9.82-1-19.94-1.13-30.22a150,150,0,0,1,149.61,110.94l-29,7A114.5,114.5,0,0,0,964.88,608.7Z" transform="translate(-708.97 -267)" style="fill: #fff"/>
          <path d="M923.79,647c-11.36-13.36-27.12-20.19-41.64-19.57.46-9.44,1.12-19.73,2.06-30.59a89,89,0,0,1,61.42,31.57,90.14,90.14,0,0,1,21.14,48.43l-29.53,2.94A55.4,55.4,0,0,0,923.79,647Z" transform="translate(-708.97 -267)" style="fill: #fff"/>
        </g>
        <path d="M986.46,286.67a26.25,26.25,0,1,0-3.37,20.82c15.51,7.79,26.05,23.36,26.2,23.58l8.5-5.63,8.52-5.61C1025.47,318.57,1010.32,296,986.46,286.67Z" transform="translate(-708.97 -267)" style="fill: #d0d0d0"/>
        <path d="M1082.87,528s10.86,37.6-3.63,86.15-33.74,74.77-47.46,71.42-14.15-63.8-11.22-76.43c1.53-6.53,10.75-43.95,24.57-63.54,0,0,30.5-19.08,32.13-19.65C1080.65,524.69,1081.63,522.61,1082.87,528Z" transform="translate(-708.97 -267)" style="fill: #d0d0d0"/>
      </g>
    </g>
  </g>
</svg>
