<?xml version="1.0" encoding="UTF-8"?>
<svg xmlns="http://www.w3.org/2000/svg" viewBox="0 0 1822.86 2572.29">
    <path fill="#e7e8e9" stroke="#191919" stroke-width="8.674" stroke-miterlimit="10" d="M1037.55 2077.89c0 52.45-56.46 107.92-126.12 107.92s-126.12-55.47-126.12-107.92 56.46-82 126.12-82 126.12 29.55 126.12 82z" />
    <g stroke="#191919" stroke-width="8.674" stroke-miterlimit="10">
        <path fill="#191919" d="M1239.31 1954.5c58.58-59.13-73.16-103.33-327.87-103.15-254.71-.16-386.46 44-327.87 103.15 8.21 10.14 20 19.93 33.89 29.25h-.12a786.41 786.41 0 0 1 81.26 62.14h.09c42.93 38.29 122.86 64.46 212.76 64.46s169.82-26.16 212.76-64.46a786 786 0 0 1 81.31-62.14h-.12c13.93-9.3 25.69-19.11 33.91-29.25z" />
        <path fill="#bd292c" d="M1239.31 1954.5c-53.91 59.07-188.28 106-327.87 105.81-139.6.21-273.95-46.71-327.87-105.81-58.58-59.13 73.16-103.33 327.87-103.15 254.7-.15 386.45 44.04 327.87 103.15z" />
    </g>
    <g stroke="#191919" stroke-width="8.674" stroke-miterlimit="10">
        <path fill="#191919" d="M1468.56 1778.8c39.84-46.56 20.39-87.78-78.92-116.91-96.36-29.2-272.59-46.32-478.2-46.42-205.62.08-381.84 17.21-478.2 46.41-99.31 29.13-118.76 70.34-78.92 116.92 12.87 14.92 31 29.47 52.47 43.29h-.23a1332.87 1332.87 0 0 1 136.22 99.3h.07c74.76 61.28 213.7 103.2 368.59 103.18s293.83-41.92 368.59-103.18h.22a1332.67 1332.67 0 0 1 136.07-99.3h-.23c21.5-13.86 39.6-28.35 52.47-43.29z" />
        <path fill="#bd292c" d="M1468.56 1778.8c-91 93.58-320.71 167.88-557.12 167.51-236.42.36-466.15-74-557.12-167.51-39.84-46.56-20.39-87.78 78.92-116.91 96.36-29.2 272.58-46.32 478.2-46.42 205.62.08 381.85 17.21 478.21 46.41 99.3 29.12 118.74 70.34 78.91 116.92z" />
    </g>
    <path fill="#191919" stroke="#191919" stroke-width="8.674" stroke-miterlimit="10" d="M116.83 1599.38a2094.57 2094.57 0 0 1 203.29 142.39h.11C441 1834.47 664.42 1898 911.43 1898s470.43-63.51 591.21-156.2h.11A2094.68 2094.68 0 0 1 1706 1599.38H117" />
    <path fill="#e7e8e9" d="M908.5 1795.21c-186.72 0-369.19-25.1-527.67-72.59-146.52-43.9-261.76-104.23-324.49-169.87-36.11-37.75-53.57-75.68-51.9-112.65 1.86-42.09 27.75-80.46 77-114 45.84-31.28 111.82-58.36 196.11-80.49 80.65-21.17 176.94-37.56 286.18-48.69 107-10.91 224-16.55 347.73-16.77 123.77.22 240.76 5.86 347.75 16.77 109.24 11.14 205.52 27.52 286.17 48.69 84.29 22.13 150.27 49.21 196.11 80.49 49.2 33.57 75.1 71.94 77 114 1.67 37-15.79 74.87-51.9 112.65-62.74 65.64-178 126-324.52 169.87-158.48 47.48-341 72.58-527.7 72.58z" />
    <path fill="#191919" d="M911.43 1184.46c491.39.87 895.23 88 902.65 255.84 7.51 165.91-394.78 350.57-899.83 350.57h-5.75c-505 0-907.24-184.67-899.73-350.57 7.42-167.81 411.26-255 902.66-255.84m0-8.67c-123.9.22-241 5.87-348.17 16.79-109.46 11.16-206 27.58-286.84 48.81-84.77 22.25-151.2 49.54-197.46 81.1C28.57 1356.87 2 1396.38.11 1439.92c-.87 19.29 3.38 39.12 12.65 58.91 8.9 19 22.5 38.15 40.44 56.92 63.25 66.17 179.16 126.91 326.38 171 76.38 22.89 159.1 40.74 245.87 53.07a2019.57 2019.57 0 0 0 283 19.7h5.75a2020.23 2020.23 0 0 0 283.09-19.7c86.78-12.33 169.51-30.18 245.9-53.06 147.24-44.11 263.17-104.85 326.42-171 17.94-18.77 31.54-37.92 40.44-56.92 9.27-19.8 13.53-39.62 12.65-58.92-1.93-43.53-28.45-83-78.85-117.42-46.25-31.56-112.69-58.84-197.46-81.1-80.87-21.23-177.38-37.66-286.84-48.81-107.13-10.92-224.27-16.57-348.16-16.79z" />
    <path fill="#e7e8e9" stroke="#000" stroke-width="8.674" stroke-miterlimit="10" d="M773.29 1419.49l138.41 49.69 138.44-49.69-138.77-41.4-138.08 41.4z" />
    <path fill="#fff" d="M289.8 1246.41l1.53-.38c32.29-8.11 67.44-15.57 104.48-22.17h.11L913 1378.09 773.28 1420z" />
    <path fill="#7f7f7f" d="M395.9 1224.32l515.47 153.77-138.07 41.4-481.84-173c32.63-8.19 67.53-15.58 104.44-22.17m.06-1h-.22c-37 6.61-72.21 14.07-104.51 22.18l-3.06.77 3 1.07 481.84 173 .3.11.3-.09L911.64 1379l3.08-.92-3.08-.92-515.47-153.76-.22-.07z" />
    <path fill="#fff" d="M909.69 1378.09l515.53-154.56h.11c37.85 6.71 73.72 14.31 106.61 22.58l1.53.39-483.31 173.5z" />
    <path fill="#7f7f7f" d="M1425.25 1224c37.7 6.69 73.33 14.21 106.58 22.58l-481.69 172.89-138.78-41.4L1425.25 1224m-.06-1l-.22.07-513.88 154.1-3.08.92 3.08.92 138.78 41.4.3.09.3-.11 481.69-172.89 3-1.07-3.06-.77c-32.9-8.27-68.78-15.88-106.65-22.59h-.23z" />
    <path fill="#fff" d="M906 1469.18l144.08-51.71 643.17 191.86-3.49 2.27c-44.93 29.18-99.79 56.08-163.06 80l-.66.25z" />
    <path d="M1050.14 1419.49L1688.72 1610c-44.35 28.8-99.24 55.83-162.69 79.77L911.7 1469.18l138.45-49.69m-.11-4l-1.19.43-138.45 49.64-10.08 3.62 10.08 3.62 614.33 220.57 1.33.48 1.32-.5c63.39-23.92 118.38-50.88 163.43-80.14l7-4.53-8-2.38-638.57-190.5-1.21-.36z" />
    <path fill="#fff" d="M296.31 1691.61c-62.75-23.66-117.25-50.33-162-79.24l-3.5-2.26 642.55-192.65 144 51.71L297 1691.86z" />
    <path fill="#191919" d="M773.29 1419.49l138.4 49.69L297 1689.81c-62.95-23.74-117.47-50.52-161.65-79.06l638-191.27m.11-4l-1.21.36-638 191.27-8 2.39 7 4.52c44.87 29 99.51 55.72 162.38 79.43l1.32.5 1.33-.48L913 1472.8l10.08-3.62-10.08-3.62-138.4-49.69-1.19-.43z" />
    <path fill="#fff" stroke="#000" stroke-width="3.845" stroke-miterlimit="10" d="M1479.27 1402.3c4.73 92.76-249.3 196-567.84 195.63-318.54.4-572.57-102.87-567.84-195.63 4.67-93.65 258.72-142.28 567.84-142.77 309.12.47 563.17 49.12 567.84 142.77z" />
    <path d="M911.43 259.11c332 0 601.12 327.24 601.12 623.73 0 0 0 430-43.21 539.78-34.63 95.36-271.21 169.14-557.92 169.14s-523.27-73.76-557.9-169.15c-43.21-109.79-43.21-539.78-43.21-539.78 0-296.49 269.13-623.73 601.12-623.73m0-13.46c-82 0-162.69 19.23-239.92 57.14a632.26 632.26 0 0 0-104.34 64.79 693.33 693.33 0 0 0-90.73 83.12 723 723 0 0 0-74.8 97.22 703.71 703.71 0 0 0-56.51 107.16 638.14 638.14 0 0 0-35.78 113 548.53 548.53 0 0 0-12.51 114.75c0 1.08.06 109.19 5.42 229.32 7.23 162.17 20.23 268.22 38.66 315.23 9.57 26.18 32 50.81 66.76 73.21 32.51 21 75 39.54 126.32 55.23 104.19 31.86 238.22 49.4 377.42 49.4s273.23-17.54 377.42-49.4c51.31-15.69 93.81-34.27 126.32-55.23 34.73-22.39 57.2-47 66.76-73.21 18.43-47 31.44-153.05 38.66-315.23C1526 992 1526 883.91 1526 882.83a548.53 548.53 0 0 0-12.51-114.75 638.13 638.13 0 0 0-35.78-113 703.7 703.7 0 0 0-56.51-107.16 723 723 0 0 0-74.8-97.22 693.33 693.33 0 0 0-90.73-83.12 632.26 632.26 0 0 0-104.34-64.79c-77.22-37.92-157.94-57.14-239.92-57.14z" />
    <path fill="#fff" d="M1076.44 380.06c75.08 36.86 143.66 88.9 203.84 154.66 57.66 63 105.3 137.15 137.77 214.41 32.9 78.29 50.29 160.07 50.29 236.53 0 1.61-.06 57.82-2 135.56 6.2-123.51 6.33-240.43 6.33-242.61 0-66.31-15.09-137.26-43.63-205.16-28.17-67-69.49-131.33-119.5-186-52.2-57-111.68-102.17-176.81-134.15C1063.39 319.26 991 302 917.63 302A472.06 472.06 0 0 0 778 323.29q25.14-2.37 50.46-2.38c84.6-.01 168.03 19.9 247.98 59.15z" />
    <path fill="#7f7f7f" d="M461 1234.58c.07-43.3 30.38-92.49 67-100.93 36.67-8.25 66.93 27 68.08 70 0 0 1.53 62.32-2.93 80.09-3.52 15.26-29.84 36.31-62.73 43.71-32.87 7.58-60.41-1.09-64.4-14.64-5.02-15.56-5.02-78.23-5.02-78.23z" />
    <path fill="#e7e8e9" d="M542.75 1322.7c3.08-63.11 1.54-112.21-.35-142.7.74 0 1.49-.07 2.22-.07 23.06 0 41.75 23.3 42.55 53.05v.17c-.33 7.24-2.07 44.22-4.36 65.26-9.49 9.94-23.99 18.73-40.06 24.29z" />
    <path fill="#7f7f7f" d="M544.63 1178.77v2.31c10.83 0 21.05 5.38 28.79 15.15S585.63 1219 586 1233v.13c-.33 7.19-2.05 43.73-4.31 64.8-9 9.37-22.61 17.68-37.71 23.15 2.94-61.54 1.48-109.62-.36-139.94h1v-2.31m0 0c-1.13 0-2.29.05-3.44.17 2.07 32.72 3.5 82.16.34 145.4 18-5.94 33.16-15.62 42.39-25.42 2.54-23.08 4.41-66 4.42-66-.79-29.51-19.57-54.18-43.7-54.18z" />
    <path fill="#e7e8e9" d="M506.66 1329.12a80.42 80.42 0 0 1-16-1.53c-2.86-19.65-4-70.62-4-71.14 0-15.76 5.45-33.16 14.88-47.71 9.76-15 22.27-25 35.24-28a33.31 33.31 0 0 1 3.33-.57c1.89 30.58 3.43 79.88.3 143.27-3.84 1.25-7.11 2.17-10.22 2.87a104.91 104.91 0 0 1-23.53 2.81z" />
    <path fill="#7f7f7f" d="M539 1181.53c1.85 30.51 3.3 79 .26 141.11-3.47 1.11-6.48 1.95-9.37 2.6a103.75 103.75 0 0 1-23.25 2.74 80 80 0 0 1-15-1.35c-2.74-19.94-3.81-68.78-3.84-70.16 0-15.56 5.39-32.72 14.7-47.08 9.45-14.58 22-24.59 34.52-27.47.65-.15 1.31-.27 2-.38m2.15-2.59a37.49 37.49 0 0 0-4.67.72c-27.89 6.43-51 43.86-51 76.82 0 0 1.1 52.74 4.1 72.08a81 81 0 0 0 17.07 1.72 106.18 106.18 0 0 0 23.77-2.8c3.81-.86 7.48-2 11.08-3.14 3.16-63.24 1.73-112.67-.34-145.4z" />
    <g fill="#7f7f7f">
        <path d="M534.91 1159.86a17.35 17.35 0 0 1-10.49-3.61c-8.68-6.55-11.21-20-5.62-29.86 3.45-6.13 9.35-9.79 15.76-9.79a17.35 17.35 0 0 1 10.49 3.61c8.69 6.55 11.21 19.95 5.62 29.86-3.45 6.13-9.34 9.79-15.76 9.79z" />
        <path d="M534.57 1120.43a13.53 13.53 0 0 1 8.17 2.84c7.08 5.34 9.18 16.75 4.58 24.91-2.76 4.9-7.4 7.83-12.41 7.83a13.53 13.53 0 0 1-8.17-2.84c-7.08-5.34-9.18-16.75-4.58-24.91 2.76-4.9 7.4-7.83 12.41-7.83m0-7.69c-7.83 0-15 4.39-19.12 11.75-6.5 11.53-3.51 27.15 6.65 34.82a21.16 21.16 0 0 0 12.8 4.39c7.83 0 15-4.39 19.12-11.75 6.5-11.53 3.52-27.15-6.65-34.82a21.16 21.16 0 0 0-12.8-4.39z" />
        <path d="M534.53 1112.74a20.16 20.16 0 0 1 12.19 4.21c10.27 7.75 13.23 23.55 6.61 35.3-4.19 7.43-11.2 11.45-18.38 11.45a20.16 20.16 0 0 1-12.19-4.21c-10.27-7.74-13.23-23.55-6.61-35.29 4.18-7.43 11.2-11.45 18.38-11.45m0-12.15c-11.92 0-22.74 6.59-29 17.64-9.65 17.12-5.31 39.5 9.88 51a32.22 32.22 0 0 0 19.51 6.66c11.91 0 22.74-6.59 29-17.64 9.65-17.12 5.31-39.5-9.88-51a32.23 32.23 0 0 0-19.51-6.66z" />
    </g>
    <path fill="#7f7f7f" d="M1356.41 1312.84c-4 13.55-31.54 22.22-64.4 14.64-32.88-7.41-59.21-28.45-62.73-43.71-4.46-17.77-2.93-80.1-2.93-80.09 1.15-43 31.41-78.27 68.08-70 36.65 8.45 67 57.63 67 100.93.02-.03 0 62.64-5.02 78.23z" />
    <path fill="#e7e8e9" d="M1279.68 1322.7c-16.06-5.56-30.57-14.35-40.05-24.3-2.28-21-4-58-4.36-65.26v-.17c.8-29.75 19.49-53.05 42.55-53.05.73 0 1.48 0 2.22.07-1.9 30.5-3.44 79.6-.36 142.71z" />
    <path fill="#7f7f7f" d="M1277.81 1181.08h1c-1.84 30.32-3.3 78.41-.36 139.94-15.1-5.47-28.67-13.78-37.71-23.15-2.26-21.07-4-57.61-4.31-64.8v-.13c.38-13.92 4.86-27 12.6-36.73s18-15.15 28.8-15.15m0-2.31c-24.13 0-42.91 24.67-43.7 54.18 0 0 1.88 42.88 4.42 66 9.23 9.8 24.43 19.48 42.39 25.42-3.16-63.24-1.73-112.67.34-145.4-1.16-.11-2.31-.17-3.44-.17z" />
    <path fill="#e7e8e9" d="M1315.78 1329.12a104.91 104.91 0 0 1-23.51-2.77c-3.12-.7-6.39-1.62-10.23-2.87-3.13-63.38-1.59-112.69.3-143.27a33.33 33.33 0 0 1 3.34.57c13 3 25.48 12.92 35.24 28 9.43 14.55 14.86 31.95 14.88 47.73 0 .49-1.11 51.46-4 71.11a80.42 80.42 0 0 1-16 1.53z" />
    <path fill="#7f7f7f" d="M1283.41 1181.53c.7.11 1.36.23 2 .38 12.49 2.88 25.08 12.89 34.53 27.47 9.31 14.36 14.67 31.52 14.7 47.08 0 1.38-1.1 50.22-3.84 70.16a80 80 0 0 1-15 1.35 103.79 103.79 0 0 1-23.27-2.74c-2.88-.65-5.89-1.48-9.36-2.59-3-62.1-1.59-110.6.26-141.11m-2.15-2.59c-2.07 32.72-3.5 82.16-.34 145.4 3.6 1.19 7.28 2.29 11.08 3.14a106.18 106.18 0 0 0 23.77 2.8 81 81 0 0 0 17.07-1.72c3-19.33 4.1-72.08 4.1-72.08-.05-33-23.12-70.39-51-76.82a37.49 37.49 0 0 0-4.67-.72z" />
    <g fill="#7f7f7f">
        <path d="M1287.53 1159.86c-6.42 0-12.31-3.66-15.76-9.79-5.59-9.92-3.07-23.31 5.62-29.86a17.35 17.35 0 0 1 10.49-3.61c6.42 0 12.31 3.66 15.76 9.79 5.59 9.91 3.07 23.31-5.62 29.87a17.35 17.35 0 0 1-10.49 3.6z" />
        <path d="M1287.87 1120.43c5 0 9.65 2.93 12.42 7.83 4.6 8.16 2.5 19.56-4.58 24.91a13.53 13.53 0 0 1-8.17 2.84c-5 0-9.65-2.93-12.42-7.83-4.6-8.16-2.5-19.56 4.58-24.9a13.53 13.53 0 0 1 8.17-2.84m0-7.69a21.16 21.16 0 0 0-12.8 4.39c-10.17 7.67-13.15 23.29-6.65 34.82 4.14 7.36 11.29 11.75 19.12 11.75a21.16 21.16 0 0 0 12.8-4.39c10.16-7.67 13.15-23.29 6.65-34.82-4.14-7.35-11.29-11.75-19.12-11.75z" />
        <path d="M1287.91 1112.74c7.19 0 14.2 4 18.38 11.45 6.62 11.75 3.66 27.55-6.61 35.29a20.16 20.16 0 0 1-12.19 4.21c-7.19 0-14.2-4-18.38-11.45-6.62-11.75-3.66-27.55 6.61-35.3a20.16 20.16 0 0 1 12.19-4.21m0-12.15a32.23 32.23 0 0 0-19.51 6.66c-15.18 11.45-19.52 33.84-9.88 51 6.22 11 17.05 17.64 29 17.64a32.22 32.22 0 0 0 19.51-6.66c15.19-11.45 19.53-33.83 9.88-51-6.22-11-17.05-17.64-29-17.64z" />
    </g>
    <path fill="#191919" d="M1187.82 1446c.1-61.84 43.39-132.08 95.73-144.14 52.37-11.78 95.58 38.55 97.22 100 0 0 2.18 89-4.19 114.38-5 21.8-42.62 51.85-89.58 62.43-46.94 10.83-86.28-1.56-92-20.91-7.15-22.28-7.18-111.76-7.18-111.76z" />
    <path fill="#e7e8e9" d="M1304.88 1571.42c4.37-89.74 2.19-159.63-.5-203.14 1-.06 1.93-.08 2.88-.08 15.89 0 30.88 7.87 42.2 22.16s17.75 33.14 18.29 53.33v.27c-.47 10.33-3 63.09-6.21 93-13.45 14.1-33.94 26.54-56.66 34.46z" />
    <path d="M1307.27 1366.28v3.85c15.29 0 29.74 7.61 40.69 21.43s17.32 32.35 17.87 52.1v.18c-.46 10.24-2.92 62.22-6.13 92.31-12.7 13.1-31.64 24.75-52.74 32.51 4.13-87.12 2.08-155.3-.52-198.51h.84v-3.85m0 0c-1.62 0-3.26.08-4.92.24 3 46.73 5 117.33.48 207.64 25.66-8.49 47.36-22.31 60.54-36.3 3.62-33 6.3-94.21 6.31-94.2-1.13-42.15-28-77.38-62.41-77.38z" />
    <path fill="#e7e8e9" d="M1253 1580.72a114.76 114.76 0 0 1-22.67-2.15c-4.06-28.18-5.62-100.62-5.63-101.36 0-22.45 7.76-47.24 21.21-68 13.89-21.43 31.71-35.57 50.16-39.82 1.39-.31 2.84-.57 4.44-.77 2.69 43.67 4.87 113.89.42 204.09-5.39 1.75-10 3-14.39 4a149.55 149.55 0 0 1-33.54 4.01z" />
    <path d="M1298.76 1370.85c2.62 43.53 4.65 112.4.35 200.46-4.79 1.53-9 2.68-13 3.58a147.62 147.62 0 0 1-33.09 3.9 114 114 0 0 1-21-1.85c-3.87-28.66-5.38-97.66-5.42-99.74 0-22.12 7.66-46.52 20.9-66.93 13.42-20.7 31.27-34.91 49-39 .73-.16 1.47-.31 2.24-.44m3.59-4.34a53.54 53.54 0 0 0-6.67 1c-39.83 9.18-72.79 62.64-72.86 109.71 0 0 1.57 75.32 5.85 102.93a115.61 115.61 0 0 0 24.38 2.46 151.64 151.64 0 0 0 34-4c5.43-1.22 10.68-2.79 15.83-4.49 4.51-90.31 2.47-160.91-.48-207.64z" />
    <path fill="#c71f1b" d="M1293.39 1340.91a26.41 26.41 0 0 1-16-5.49c-13-9.84-16.83-29.92-8.47-44.77 5.23-9.28 14.18-14.82 23.95-14.82a26.4 26.4 0 0 1 16 5.49c13 9.83 16.84 29.92 8.47 44.77-5.23 9.28-14.18 14.82-23.95 14.82z" />
    <path fill="#fff" d="M1292.9 1279.67a22.59 22.59 0 0 1 13.65 4.72 29.28 29.28 0 0 1 10.75 18.1 32 32 0 0 1-3.32 21.71c-4.53 8.05-12.23 12.86-20.6 12.86a22.59 22.59 0 0 1-13.65-4.72 29.29 29.29 0 0 1-10.75-18.1 32 32 0 0 1 3.32-21.71c4.54-8.05 12.24-12.86 20.6-12.86m0-7.69c-11.18 0-21.38 6.27-27.3 16.77-9.28 16.47-5 38.78 9.5 49.73a30.22 30.22 0 0 0 18.28 6.27c11.18 0 21.38-6.27 27.3-16.77 9.28-16.47 5-38.78-9.5-49.73a30.22 30.22 0 0 0-18.28-6.27z" />
    <path fill="#191919" d="M1292.85 1272a28.79 28.79 0 0 1 17.42 6c14.67 11.06 18.89 33.63 9.44 50.41-6 10.61-16 16.36-26.25 16.36a28.8 28.8 0 0 1-17.42-6c-14.67-11.06-18.89-33.63-9.44-50.4 6-10.61 16-16.36 26.25-16.36m0-17.35c-17 0-32.48 9.42-41.37 25.19-13.78 24.45-7.58 56.41 14.11 72.77a46 46 0 0 0 27.86 9.51c17 0 32.48-9.42 41.37-25.19 13.78-24.45 7.58-56.42-14.1-72.77a46 46 0 0 0-27.86-9.51zm-665 303.08c-5.7 19.35-45 31.74-92 20.91-47-10.58-84.55-40.63-89.58-62.43-6.37-25.38-4.18-114.39-4.19-114.38 1.64-61.45 44.86-111.78 97.22-100 52.34 12.06 95.63 82.3 95.73 144.14.02.02-.03 89.5-7.18 111.76z" />
    <path fill="#e7e8e9" d="M518 1571.42c-22.71-7.92-43.2-20.36-56.64-34.43-3.25-30-5.74-82.74-6.21-93.07v-.25c.54-20.19 7-39.13 18.29-53.33s26.31-22.16 42.2-22.16c1 0 1.92 0 2.88.08-2.72 43.53-4.9 113.41-.52 203.16z" />
    <path d="M515.61 1370.12h.84c-2.61 43.21-4.65 111.39-.52 198.51-21.1-7.76-40-19.4-52.74-32.51-3.21-30.09-5.67-82.07-6.13-92.31v-.18c.55-19.75 6.89-38.25 17.87-52.1s25.4-21.43 40.69-21.43m0-3.85c-34.46 0-61.28 35.23-62.41 77.38 0 0 2.68 61.24 6.31 94.2 13.19 14 34.88 27.82 60.54 36.3-4.51-90.31-2.47-160.91.48-207.64-1.65-.16-3.3-.24-4.92-.24z" />
    <path fill="#e7e8e9" d="M569.82 1580.72a149.55 149.55 0 0 1-33.52-3.95c-4.41-1-9-2.28-14.4-4-4.45-90.21-2.28-160.43.42-204.09 1.6.2 3 .45 4.45.77 18.44 4.25 36.26 18.39 50.15 39.82 13.44 20.73 21.17 45.52 21.21 68v.1c-.17 7.63-1.74 74.27-5.63 101.23a114.74 114.74 0 0 1-22.67 2.15z" />
    <path d="M524.11 1370.85c.77.13 1.5.27 2.22.44 17.7 4.08 35.55 18.29 49 39 13.24 20.42 20.86 44.81 20.9 66.93v.07c-.16 7.49-1.68 72-5.42 99.67a114.05 114.05 0 0 1-21 1.85 147.67 147.67 0 0 1-33.11-3.9c-4-.9-8.17-2-13-3.58-4.29-88.06-2.26-156.93.35-200.46m-3.59-4.34c-3 46.73-5 117.33-.48 207.64 5.15 1.7 10.39 3.27 15.83 4.49a151.64 151.64 0 0 0 34 4 115.61 115.61 0 0 0 24.38-2.46c4.28-27.61 5.85-102.93 5.85-102.93-.07-47.06-33-100.52-72.86-109.71a53.54 53.54 0 0 0-6.67-1z" />
    <path fill="#c71f1b" d="M529.48 1340.91c-9.77 0-18.72-5.54-23.95-14.82-8.37-14.85-4.57-34.94 8.47-44.77a26.4 26.4 0 0 1 16-5.49c9.77 0 18.72 5.54 23.95 14.82 8.37 14.85 4.57 34.93-8.47 44.77a26.4 26.4 0 0 1-16 5.49z" />
    <path fill="#fff" d="M530 1279.67c8.36 0 16.06 4.81 20.6 12.86a32 32 0 0 1 3.32 21.71 29.29 29.29 0 0 1-10.75 18.1 22.59 22.59 0 0 1-13.65 4.72c-8.36 0-16.06-4.81-20.6-12.86a32 32 0 0 1-3.32-21.71 29.28 29.28 0 0 1 10.75-18.1 22.59 22.59 0 0 1 13.65-4.72m0-7.69a30.22 30.22 0 0 0-18.28 6.27c-14.52 11-18.78 33.26-9.5 49.73 5.92 10.5 16.12 16.77 27.3 16.77a30.22 30.22 0 0 0 18.28-6.27c14.51-11 18.78-33.26 9.5-49.73-5.92-10.5-16.12-16.77-27.3-16.77z" />
    <path fill="#191919" d="M530 1272c10.26 0 20.28 5.75 26.25 16.36 9.45 16.78 5.23 39.34-9.44 50.4a28.8 28.8 0 0 1-17.42 6c-10.26 0-20.28-5.75-26.25-16.36-9.45-16.78-5.23-39.34 9.44-50.41a28.79 28.79 0 0 1 17.42-6m0-17.35a46 46 0 0 0-27.86 9.51c-21.68 16.36-27.88 48.32-14.1 72.77 8.89 15.77 24.35 25.19 41.37 25.19a46 46 0 0 0 27.86-9.51c21.69-16.35 27.89-48.32 14.11-72.77-8.88-15.83-24.38-25.2-41.38-25.2z" />
    <path fill="none" stroke="#000" stroke-width="48.069" stroke-miterlimit="10" d="M910.69 250.25s-3-122.94 80.19-167" />
    <path fill="#e7e8e9" d="M990.83 162.09A78.88 78.88 0 0 1 987.76 4.4q1.6-.06 3.18-.06A78.88 78.88 0 0 1 994 162c-1.06 0-2.12.06-3.17.06z" />
    <path d="M990.94 8.67a74.54 74.54 0 0 1 2.9 149q-1.51.06-3 .06a74.54 74.54 0 0 1-2.9-149q1.51-.06 3-.06m0-8.67c-1.11 0-2.24 0-3.35.07a83.21 83.21 0 0 0-54.3 143.2 82.78 82.78 0 0 0 57.55 23.16c1.11 0 2.24 0 3.35-.07a83.21 83.21 0 0 0 54.3-143.2A82.78 82.78 0 0 0 990.94 0z" />
    <path d="M1258.88 2437.45c-2.86-64.55-158.19-98.07-347.2-98.41-189 .34-344.35 33.86-347.2 98.41-2.9 63.94 152.43 135.12 347.2 134.84 194.76.26 350.09-70.91 347.2-134.84z" opacity=".1" />
</svg>
