<svg xmlns="http://www.w3.org/2000/svg" viewBox="0 0 560 169"><g fill="#FFF" fill-rule="nonzero"><path d="M25.48.16H4.77C3.523.115 2.314.59 1.432 1.472.55 2.354.075 3.562.12 4.81v20.71c-.045 1.247.43 2.456 1.312 3.338.882.882 2.09 1.357 3.338 1.312h20.71c1.247.045 2.456-.43 3.338-1.312.882-.882 1.357-2.09 1.312-3.338V4.81c.02-1.24-.465-2.433-1.34-3.31C27.912.626 26.72.14 25.48.16zM399.46 42.48c-36.92 0-54 19.66-54 62.43 0 43.82 18.31 61.83 60.48 61.83 11.2-.032 22.362-1.286 33.29-3.74 1.994-.55 3.316-2.44 3.15-4.5v-16.22c0-3-1.8-3.9-4.5-3.45-11.41 2-18.91 3.15-30 3.15-21.76 0-31.52-5.4-33-26.86h71.28c3.45 0 5-1.5 5-5v-.45c-.08-47.53-15.24-67.19-51.7-67.19zm-24.61 52.68c1.05-21.16 8.7-28.36 24.91-28.36 15.61 0 22.36 7.2 23.71 28.36h-48.62zM137.13 140.63c-2.875.488-5.784.74-8.7.75-9.3 0-12.76-3-12.76-19.21V49.38c.082-1.057-.302-2.098-1.052-2.848s-1.79-1.134-2.848-1.052H91.06c-1.057-.082-2.098.302-2.848 1.052s-1.134 1.79-1.052 2.848v76.39c0 30 10.66 39.77 35.27 39.77 5.127.012 10.247-.39 15.31-1.2 3-.45 3.75-2.4 3.75-4.5v-16.06c-.16-2.7-1.66-3.78-4.36-3.15zM288 45.33c-5.127-.012-10.247.39-15.31 1.2-3 .45-3.75 2.4-3.75 4.5v16.06c0 2.7 1.5 3.75 4.2 3.15 2.875-.488 5.784-.74 8.7-.75 9.3 0 12.76 3 12.76 19.21v72.78c-.082 1.057.302 2.098 1.052 2.848s1.79 1.134 2.848 1.052h20.71c1.057.082 2.098-.302 2.848-1.052s1.134-1.79 1.052-2.848V85.1c.11-30.01-10.54-39.77-35.11-39.77zM223 45.33c-5.127-.012-10.247.39-15.31 1.2-3 .45-3.75 2.4-3.75 4.5v16.06c0 2.7 1.5 3.75 4.2 3.15 2.875-.488 5.784-.74 8.7-.75 9.3 0 12.76 3 12.76 19.21v72.78c-.082 1.057.302 2.098 1.052 2.848s1.79 1.134 2.848 1.052h20.71c1.057.082 2.098-.302 2.848-1.052s1.134-1.79 1.052-2.848V85.1c.13-30.01-10.53-39.77-35.11-39.77zM158.59 45.33c-5.127-.012-10.247.39-15.31 1.2-3 .45-3.75 2.4-3.75 4.5v16.06c0 2.7 1.5 3.75 4.2 3.15 2.875-.488 5.784-.74 8.7-.75 9.3 0 12.76 3 12.76 19.21v72.78c-.082 1.057.302 2.098 1.052 2.848s1.79 1.134 2.848 1.052h20.71c1.057.082 2.098-.302 2.848-1.052s1.134-1.79 1.052-2.848V85.1c.16-30.01-10.5-39.77-35.11-39.77zM555.08 142.13c-6.56.95-13.18 1.452-19.81 1.5-24.46 0-32-7.05-32-37.82S511.11 68 535.12 68c6.693.046 13.375.547 20 1.5 2.7.3 4.5-.45 4.5-3.75l.3-15.76c.16-2.16-1.324-4.094-3.45-4.5-8.626-1.874-17.434-2.78-26.26-2.7-40.22 0-56.58 18.31-56.58 63s16.21 63 56.58 63c8.824.02 17.625-.884 26.26-2.7 2.126-.406 3.61-2.34 3.45-4.5v-15.71c-.19-3.3-2.14-4.05-4.84-3.75z"/></g></svg>
